<?xml version="1.0" standalone="no"?>
<!DOCTYPE svg PUBLIC "-//W3C//DTD SVG 1.1//EN" "http://www.w3.org/Graphics/SVG/1.1/DTD/svg11.dtd" >
<svg xmlns="http://www.w3.org/2000/svg">
<metadata>
Created by FontForge 20120731 at Sun Apr  9 18:48:41 2017
 By admin
</metadata>
<defs>
<font id="iconfont" horiz-adv-x="1024" >
  <font-face 
    font-family="iconfont"
    font-weight="500"
    font-stretch="normal"
    units-per-em="1024"
    panose-1="2 0 6 3 0 0 0 0 0 0"
    ascent="896"
    descent="-128"
    x-height="792"
    bbox="-0.482759 -128 1344 896.085"
    underline-thickness="0"
    underline-position="0"
    unicode-range="U+0078-E6BE"
  />
<missing-glyph 
 />
    <glyph glyph-name=".notdef" 
 />
    <glyph glyph-name=".notdef" 
 />
    <glyph glyph-name=".null" horiz-adv-x="0" 
 />
    <glyph glyph-name="nonmarkingreturn" horiz-adv-x="341" 
 />
    <glyph glyph-name="x" unicode="x" horiz-adv-x="1001" 
d="M281 543q-27 -1 -53 -1h-83q-18 0 -36.5 -6t-32.5 -18.5t-23 -32t-9 -45.5v-76h912v41q0 16 -0.5 30t-0.5 18q0 13 -5 29t-17 29.5t-31.5 22.5t-49.5 9h-133v-97h-438v97zM955 310v-52q0 -23 0.5 -52t0.5 -58t-10.5 -47.5t-26 -30t-33 -16t-31.5 -4.5q-14 -1 -29.5 -0.5
t-29.5 0.5h-32l-45 128h-439l-44 -128h-29h-34q-20 0 -45 1q-25 0 -41 9.5t-25.5 23t-13.5 29.5t-4 30v167h911zM163 247q-12 0 -21 -8.5t-9 -21.5t9 -21.5t21 -8.5q13 0 22 8.5t9 21.5t-9 21.5t-22 8.5zM316 123q-8 -26 -14 -48q-5 -19 -10.5 -37t-7.5 -25t-3 -15t1 -14.5
t9.5 -10.5t21.5 -4h37h67h81h80h64h36q23 0 34 12t2 38q-5 13 -9.5 30.5t-9.5 34.5q-5 19 -11 39h-368zM336 498v228q0 11 2.5 23t10 21.5t20.5 15.5t34 6h188q31 0 51.5 -14.5t20.5 -52.5v-227h-327z" />
    <glyph glyph-name="sousuo" unicode="&#xe615;" 
d="M911 -2l-155 168l-1 1q57 53 88.5 125t31.5 153q0 104 -51.5 193t-140 140.5t-193 51.5t-193 -51.5t-140.5 -140.5t-52 -193t52 -193t140.5 -140.5t192.5 -51.5q112 0 206 60q2 -3 4 -5l155 -169q8 -8 19 -8.5t20 6.5l16 15q8 8 8.5 19t-7.5 20zM155 445q0 91 44.5 168.5
t122 122.5t168.5 45t168.5 -45t122.5 -122.5t45 -168.5t-45 -168.5t-122.5 -122.5t-168.5 -45t-168.5 45t-122 122.5t-44.5 168.5z" />
    <glyph glyph-name="dianzan" unicode="&#xe616;" 
d="M935 758q-88 91 -212 91q-117 0 -204 -81l-7 -7l-7 7q-87 81 -204 81q-124 0 -212 -91q-89 -91 -89 -220t89 -220l361 -372q25 -27 62 -27t62 27q357 368 361 372q89 91 89 220t-89 220v0zM903 350l-360 -372q-13 -13 -31 -13t-31 13l-360 372q-76 78 -76 188t76 188
q75 77 180 77q100 0 174 -69l37 -35l37 35q74 69 174 69q105 0 180 -77q76 -78 76 -188t-76 -188v0zM903 350zM270 710h-2v0q-53 -2 -90.5 -40t-37.5 -91q0 -9 6.5 -15t15 -6t15 6t6.5 15q0 36 25.5 62t61.5 26q9 0 15.5 6t6.5 15t-6.5 15.5t-15.5 6.5v0zM270 710z" />
    <glyph glyph-name="dingwei1" unicode="&#xe617;" 
d="M515 -83q-21 0 -79.5 72t-118.5 167.5t-107 198t-47 154.5q0 97 47 178.5t128.5 129t177 47.5t177 -47.5t128.5 -129t47 -178.5q0 -51 -47 -153.5t-107.5 -198t-119 -168t-79.5 -72.5zM515.5 824q-129.5 0 -221 -92t-91.5 -221q0 -47 41.5 -138.5t95 -178t105 -151.5
t70.5 -65t70.5 65.5t105 152t95 178t41.5 137.5q0 129 -91 221t-220.5 92zM515.5 361q-60.5 0 -104 43.5t-43.5 104.5t43.5 104.5t104 43.5t103.5 -43.5t43 -104.5t-43 -104.5t-103.5 -43.5zM515.5 605q-38.5 0 -66 -27.5t-27.5 -66.5t27.5 -66.5t66 -27.5t66 27.5
t27.5 66.5t-27.5 66.5t-66 27.5z" />
    <glyph glyph-name="erweima" unicode="&#xe618;" horiz-adv-x="1025" 
d="M242 -20h-188v808h188q12 0 19.5 8t7.5 19t-7.5 19t-19.5 8h-215q-11 0 -19 -8t-8 -19v-862q0 -11 8 -19t19 -8h215q12 0 19.5 8t7.5 19t-7.5 19t-19.5 8zM997 842h-216q-11 0 -18.5 -8t-7.5 -19t7.5 -19t18.5 -8h189v-808h-189q-11 0 -18.5 -8t-7.5 -19t7.5 -19t18.5 -8
h216q11 0 19 8t8 19v862q0 11 -8 19t-19 8zM781 384q0 11 -7.5 19t-18.5 8h-486q-11 0 -18.5 -8t-7.5 -19t7.5 -19t18.5 -8h486q11 0 18.5 8t7.5 19z" />
    <glyph glyph-name="fanhui1" unicode="&#xe619;" 
d="M340 361l421 421q7 7 7 16.5t-7 16t-16.5 6.5t-16.5 -6l-437 -438q-7 -7 -7 -16.5t7 -16.5l437 -437q7 -7 16.5 -7t16.5 7t7 16.5t-7 16.5z" />
    <glyph glyph-name="fenxiang1" unicode="&#xe61a;" 
d="M836 -63h-648q-22 0 -38 13.5t-16 32.5v590q0 19 14 34t36 15h223q9 0 15.5 -6.5t6.5 -16t-6.5 -16t-15.5 -6.5h-223q-5 0 -5 -4v-588q3 -3 9 -3h648q6 0 9 3l-1 587q0 5 -6 5h-223q-9 0 -15.5 6.5t-6.5 16t6.5 16t15.5 6.5h223q22 0 36 -15.5t14 -34.5l2 -589
q0 -19 -15.5 -32.5t-38.5 -13.5zM503 808l-133 -132zM370 654q-9 0 -15.5 6.5t-6.5 15.5t6 16l133 132q6 7 15.5 7t16 -6.5t6.5 -16t-6 -15.5l-133 -133q-7 -6 -16 -6zM639 676l-132 132zM639 654q-9 0 -16 6l-132 133q-7 6 -7 15.5t6.5 16t16 6.5t15.5 -7l133 -132
q6 -7 6 -16t-6.5 -15.5t-15.5 -6.5zM505 781v-396v396zM505 363q-9 0 -15.5 6.5t-6.5 15.5v396q0 9 6.5 15.5t15.5 6.5t15.5 -6.5t6.5 -15.5v-396q0 -9 -6.5 -15.5t-15.5 -6.5z" />
    <glyph glyph-name="gouwuche" unicode="&#xe61b;" 
d="M1007 670q-7 10 -19 10h-787l-33 176q-2 8 -8.5 13.5t-15.5 5.5h-110q-10 0 -17 -7t-7 -17.5t7 -17.5t17 -7h90l31 -175v-1l99 -513q1 -9 8.5 -14.5t16.5 -5.5h587q10 0 17 7t7 17.5t-7 17.5t-17 7h-567l-15 77l612 -3v0q8 0 15 6t9 14l92 390q3 11 -5 20zM877 292
l-603 2l-44 233l-20 103h747zM353.5 67q-35.5 0 -60.5 -25.5t-25 -60.5t25 -60.5t60 -25.5t60.5 25.5t25.5 60.5t-25 60.5t-60.5 25.5zM353 -56q-15 0 -26 11t-11 26t11 26t26 11t26 -11t11 -26t-11 -26t-26 -11zM769 67q-35 0 -60.5 -25.5t-25.5 -60.5t25.5 -60.5
t60.5 -25.5t60.5 25.5t25.5 60.5t-25.5 60.5t-60.5 25.5zM769 -56q-15 0 -26 11t-11 26t11 26t26 11t26 -11t11 -26t-11 -26t-26 -11z" />
    <glyph glyph-name="kefu" unicode="&#xe61c;" 
d="M214 537q-9 0 -15 6t-7 15v10q0 77 43 142.5t116.5 103.5t160.5 38t160.5 -38t116.5 -103.5t43 -142.5v-8q0 -9 -6.5 -15.5t-15.5 -6.5t-15 6t-6 15v9q0 100 -81 171t-196 71t-196 -71t-81 -171v-9q0 -9 -6 -15.5t-15 -6.5v0zM597 15q-8 0 -14 5t-7 13q-1 9 4.5 16
t14.5 8q58 8 107.5 51t66.5 101q3 8 10.5 12.5t16 2t13 -10.5t1.5 -16q-21 -71 -79.5 -122t-130.5 -60h-3zM512 -87q-44 0 -75.5 31t-31.5 75t31.5 75.5t75.5 31.5t75.5 -31.5t31.5 -75.5t-31.5 -75t-75.5 -31zM511.5 83q-26.5 0 -45 -18.5t-18.5 -45t18.5 -45.5t45 -19
t45.5 19t19 45.5t-19 45t-45.5 18.5zM278 171h-54q-75 0 -128 56.5t-53 135.5t53 135t128 56h54q8 0 14.5 -6t6.5 -15v-340q0 -9 -6.5 -15.5t-14.5 -6.5zM224 512q-58 0 -98.5 -44t-40.5 -105.5t40.5 -105t98.5 -43.5h32v298h-32zM799 191h-54q-8 0 -14.5 6.5t-6.5 15.5v341
q0 9 6.5 15t14.5 6h54q75 0 128 -56t53 -135.5t-53 -136t-128 -56.5zM767 234h32q57 0 97.5 44t40.5 105.5t-40.5 105.5t-97.5 44h-32v-299z" />
    <glyph glyph-name="liulan" unicode="&#xe61d;" 
d="M512 241q-57 0 -98 40.5t-41 98t41 98t98 40.5t98 -40.5t41 -98t-41 -98t-98 -40.5zM512 479q-41 0 -70.5 -29t-29.5 -70.5t29.5 -70.5t70.5 -29t70.5 29t29.5 70.5t-29.5 70.5t-70.5 29zM960 365q-11 0 -17 10q-27 52 -72.5 98.5t-101.5 79.5q-119 70 -256 70h-2
q-137 0 -256 -70q-56 -33 -101.5 -79.5t-72.5 -98.5q-4 -7 -11.5 -9.5t-15 1t-9.5 11.5t1 15q29 56 78.5 107t110.5 87q63 36 133 56q72 19 144 19q73 0 144 -19q70 -20 133 -56q61 -36 110.5 -87t78.5 -107q3 -7 1 -15t-10 -11q-4 -2 -9 -2zM513 101h-2q-72 0 -142.5 19
t-133.5 56q-61 36 -110.5 86.5t-78.5 107.5q-3 7 -1 14.5t9.5 11.5t15 1.5t11.5 -9.5q27 -52 72.5 -98.5t101.5 -79.5q119 -71 256 -71h2q137 0 256 71q56 33 101.5 79.5t72.5 98.5q4 7 11.5 9.5t15 -1.5t9.5 -11.5t-1 -14.5q-29 -57 -78.5 -107.5t-111.5 -86.5
q-62 -37 -132.5 -56t-142.5 -19z" />
    <glyph glyph-name="shijian" unicode="&#xe61e;" 
d="M510 -23q-82 0 -156 31t-132 89t-88.5 132t-30.5 156t30.5 156t88.5 132t132.5 89t156 31t156 -31t131.5 -89q79 -78 106.5 -183t0 -210t-106.5 -183q-57 -58 -131.5 -89t-156.5 -31zM510 745q-72 0 -137.5 -27.5t-116.5 -78t-78.5 -116.5t-27.5 -138t27.5 -138
t78.5 -116.5t116.5 -78t137.5 -27.5t138 27.5t117 78.5q69 69 93.5 161.5t0 185t-93.5 162.5q-51 50 -117 77.5t-138 27.5zM676 224q-7 0 -15 4l-141 85l-2 2q-10 5 -12 8l-1 1v0q-25 14 -25 27v239q0 13 9.5 22.5t22 9.5t22 -9.5t9.5 -22.5v-225l142 -82v0l1 -1
q12 -7 16 -19q5 -13 -1 -24q-9 -15 -25 -15v0z" />
    <glyph glyph-name="shoucang" unicode="&#xe61f;" horiz-adv-x="1026" 
d="M1019 512q-8 24 -28 40t-46 20l-243 36l-106 216q-11 23 -34 37t-50 14t-49.5 -14t-34.5 -37l-106 -216l-243 -36q-26 -4 -46 -20t-28 -40q-9 -24 -3 -49t25 -43l178 -176l-41 -243q-4 -26 6.5 -50t31.5 -39q22 -14 48.5 -15.5t49.5 10.5l212 112l212 -112q21 -11 44 -11
q30 0 54 16q22 15 32.5 39t5.5 50l-41 243l178 176q19 18 25 43t-3 49zM966 451l-195 -191l45 -267q5 -27 -19 -44q-25 -17 -52 -3l-233 124l-233 -124q-27 -14 -52 3q-24 17 -19 44l45 267l-195 191q-20 20 -11 46q9 27 39 31l266 39l116 237q13 27 44 27t44 -27l116 -237
l266 -39q30 -4 39 -31q9 -26 -11 -46zM509 519q-69 0 -109 -41q-20 -21 -31 -50.5t-12 -43t-1 -21.5q0 -9 6.5 -15.5t15.5 -6.5h1q9 0 15.5 6.5t6.5 16.5q0 51 31 83q27 28 77 28q9 0 15.5 6.5t6.5 15.5t-6.5 15.5t-15.5 6.5z" />
    <glyph glyph-name="fenlei1" unicode="&#xe63e;" 
d="M375 896h-299q-32 0 -53.5 -21.5t-21.5 -53.5v-300q0 -31 21.5 -53t53.5 -22h299q32 0 53.5 22t21.5 53v300q0 32 -21.5 53.5t-53.5 21.5zM400 546q0 -20 -14.5 -35t-35.5 -15h-249q-21 0 -35.5 15t-14.5 35v250q0 21 14.5 35.5t35.5 14.5h249q21 0 35.5 -14.5
t14.5 -35.5v-250zM925 896h-300q-32 0 -53.5 -21.5t-21.5 -53.5v-300q0 -31 21.5 -53t53.5 -22h300q32 0 53.5 22t21.5 53v300q0 32 -21.5 53.5t-53.5 21.5zM950 546q0 -20 -15 -35t-35 -15h-250q-21 0 -35.5 15t-14.5 35v250q0 21 14.5 35.5t35.5 14.5h250q20 0 35 -14.5
t15 -35.5v-250zM375 322h-299q-32 0 -53.5 -22t-21.5 -53v-300q0 -32 21.5 -53.5t53.5 -21.5h299q32 0 53.5 21.5t21.5 53.5v300q0 31 -21.5 53t-53.5 22zM400 -28q0 -21 -14.5 -35.5t-35.5 -14.5h-249q-21 0 -35.5 14.5t-14.5 35.5v250q0 20 14.5 35t35.5 15h249
q21 0 35.5 -15t14.5 -35v-250zM1020 -86l-80 80q35 51 35 115q0 88 -62.5 150.5t-150.5 62.5t-150 -62.5t-62 -150.5t62 -150t150 -62q79 0 143 55l75 -75q8 -8 20 0l20 20q8 9 0 17zM600 109.5q0 67.5 47.5 115t115 47.5t115 -47.5t47.5 -115.5q0 -65 -43 -107l-2 -5v0
q-50 -50 -117.5 -50t-115 47.5t-47.5 115z" />
    <glyph glyph-name="fenlei2" unicode="&#xe63f;" 
d="M377 896h-299q-31 0 -53 -21.5t-22 -53.5v-300q0 -31 21.5 -53t53.5 -22h299q32 0 54 21.5t22 53.5v300q0 31 -22.5 53t-53.5 22zM625 446h300q31 0 53 21.5t22 53.5v300q0 31 -21.5 53t-53.5 22h-300q-31 0 -53 -21.5t-22 -53.5v-300q2 -31 23.5 -53t51.5 -22zM377 322
h-299q-31 0 -53 -21.5t-22 -53.5v-300q0 -31 21.5 -53t53.5 -22h299q32 0 54 21.5t22 53.5v300q0 32 -22 53.5t-54 21.5zM1019 -84l-80 80q34 49 34 114q0 88 -62 150t-149.5 62t-149.5 -62t-62 -149.5t62 -149.5t150 -62q81 0 141 56l75 -76q8 -8 19 0l20 20q12 7 2 17z
M883 3l-2 -5q-49 -48 -117 -48q-67 0 -115 47.5t-48 115t47.5 115.5t115.5 48t115.5 -48t47.5 -115q-4 -70 -44 -110z" />
    <glyph glyph-name="laidinghui1" unicode="&#xe640;" 
d="M914 433h-97v49q0 10 -7 17t-18 7h-755q-11 0 -18 -7t-7 -17v-464q0 -60 43 -103t103 -43h512q55 0 96 35.5t48 88.5q55 9 101 53.5t71.5 108t25.5 128.5v49q0 40 -28.5 69t-69.5 29zM768 433v-415q0 -40 -28.5 -68.5t-69.5 -28.5h-512q-40 0 -68.5 28.5t-28.5 68.5v439
h707v-24zM939 165q-7 -15 -16 -29t-17.5 -24.5t-18 -20t-18 -16t-16.5 -12.5t-14.5 -9.5t-11.5 -6t-7.5 -3.5l-2.5 -1v341h97q26 0 37.5 -21t11.5 -52q0 -58 -4.5 -85.5t-19.5 -60.5zM354 677q0 -20 -18.5 -32t-36.5 -15l-19 -2v-49q5 1 13.5 2.5t29.5 8.5t37 16.5t29 28
t13 42.5q0 20 -15 43.5t-33.5 40.5t-33.5 34.5t-15 27.5q0 14 6 20t12 5l6 -1v49q-9 0 -20 -3t-23.5 -10.5t-21 -23t-8.5 -36.5t15 -42.5t33.5 -37t34 -34t15.5 -32.5zM524 677q0 -20 -18 -32t-37 -15l-18 -2v-49q5 1 13 2.5t29 8.5t37.5 16.5t29.5 28t13 42.5
q0 20 -15.5 43.5t-33.5 40.5t-33.5 34.5t-15.5 27.5q0 14 6.5 20t12.5 5l6 -1v49q-9 0 -20 -3t-24 -10.5t-21 -23t-8 -36.5t15 -42.5t33.5 -37t33.5 -34t15 -32.5z" />
    <glyph glyph-name="laidinghui2" unicode="&#xe641;" 
d="M914 433h-97v48q0 11 -7 18t-18 7h-755q-11 0 -18 -7t-7 -18v-463q0 -60 43 -103t103 -43h512q55 0 96 35.5t48 88.5q54 9 100 53.5t72 108t26 129.5v48q0 40 -28.5 69t-69.5 29zM939 165q-7 -15 -16 -29t-17.5 -24.5t-18 -20t-18 -16t-16.5 -12.5t-14.5 -9.5t-11.5 -6
t-7.5 -3.5l-2.5 -1v341h97q26 0 37.5 -21t11.5 -52q0 -58 -4.5 -85.5t-19.5 -60.5zM353 677q0 -20 -18 -32t-36 -15l-19 -2v-49q5 1 13.5 2.5t29.5 8.5t37 16.5t29 28t13 42.5q0 20 -15 43.5t-33.5 40.5t-33.5 34.5t-15 27.5q0 14 6 20t12 5l6 -1v49q-9 0 -20 -3
t-23.5 -10.5t-21 -23t-8.5 -36.5t15 -42.5t33.5 -37t33.5 -34t15 -32.5zM524 677q0 -20 -18 -32t-37 -15l-18 -2v-49q5 1 13 2.5t29 8.5t37.5 16.5t29.5 28t13 42.5q0 20 -15 43.5t-33.5 40.5t-34 34.5t-15.5 27.5q0 14 6.5 20t12.5 5l6 -1v49q-9 0 -20 -3t-24 -10.5
t-21 -23t-8 -36.5t15 -42.5t33.5 -37t33.5 -34t15 -32.5z" />
    <glyph glyph-name="shejishi1" unicode="&#xe642;" horiz-adv-x="1026" 
d="M396 37q90 13 143 84.5t40 159.5q0 10 -4 24l-23 -2l-26 -5q0 -9 4 -24q11 -68 -30 -123.5t-111 -66.5q-69 -11 -125.5 29.5t-67.5 109.5q-11 67 30.5 123t111.5 67q13 3 27 0l-5 27l-3 22q-17 0 -24 -3q-89 -13 -142.5 -84.5t-40.5 -159.5t85 -140t161 -38zM53 201
q-12 84 18.5 161t95.5 129t149 66q7 2 24 2l-4 24l-3 22q-4 0 -12.5 -1t-11.5 -1q-97 -14 -172.5 -74t-111 -148.5t-21.5 -184.5q17 -115 105 -203l39 30q-81 72 -95 178zM682 418l-42 -27q26 -51 32 -95q13 -83 -18 -160t-96 -129t-149 -65q-60 -8 -108 3l-7 -44v-3
q65 -12 122 -2q97 14 172.5 74t111 148.5t21.5 184.5q-12 68 -39 115zM1001 854q-94 66 -253 -56q-32 -23 -63 -52t-58.5 -58t-54.5 -61.5t-49 -62.5t-43.5 -61t-37 -56t-30 -49t-23.5 -39t-15.5 -27l-6.5 -12l-10 -19l39 -22l13 19q36 69 95 156h2q137 -57 242 -5
q93 50 136 178q52 11 87.5 48.5t49.5 85.5q16 68 -20 93zM974 771q-10 -36 -39.5 -65.5t-72.5 -34.5l-17 -2l-2 -17q0 -2 -3.5 -13.5t-12.5 -32t-21 -41.5t-33.5 -42.5t-46.5 -34.5q-83 -41 -198 5q123 173 244 268q18 14 35.5 25.5t41 23t44.5 17.5t42.5 4t36.5 -14
q14 -9 2 -46z" />
    <glyph glyph-name="shejishi2" unicode="&#xe643;" horiz-adv-x="1026" 
d="M1001 850q-90 68 -254 -54q-60 -45 -121.5 -110.5t-104 -123t-81 -118t-54 -88.5t-22.5 -40l-9 -20l39 -22l9 20q0 1 11 20.5t34.5 57.5t50.5 78h2q142 -60 244 -5q93 49 136 178q52 10 88.5 48t48.5 84q19 69 -17 95zM689 286q-3 25 -20 47t-51 22h-12q-31 -4 -47 -27
q-4 -5 -6.5 -11t-4.5 -11t-2.5 -10.5t-1 -10t-0.5 -7.5t0.5 -6l0.5 -3q11 -81 -39 -151q-53 -68 -137 -75q-3 0 -10.5 -1.5t-11.5 -1.5v0q-73 0 -128.5 47t-68.5 119q-15 83 34 151q24 33 58.5 54t73.5 27q3 0 10 1t19.5 8t21.5 17q20 26 14 61q-3 28 -23.5 43.5t-51.5 15.5
h-10q-74 -11 -136.5 -50.5t-102.5 -100.5q-40 -63 -52 -135t6 -146q29 -113 124 -186.5t210 -73.5h10q74 1 141 34t115 90t68.5 127.5t9.5 142.5z" />
    <glyph glyph-name="shouye" unicode="&#xe644;" 
d="M1009 396l-17 -17q-9 -8 -17 0l-37 34v-339q0 -82 -59 -141t-141 -59h-71h-63h-156h-63h-47h-51v0q-84 -1 -143 57t-59 141v341l-34 -34q-4 -4 -9 -4t-8 4l-18 17q-8 9 0 17l481 481q5 4 14 0q9 4 17 0l481 -481q8 -8 0 -17zM411 -52q0 -6 1.5 -13.5t1.5 -11.5h219
q3 8 3 25v275q0 42 -29 71t-71 29h-25q-42 0 -71 -29t-29 -71v-275zM887 462l-376 375l-375 -375v-390q0 -62 44.5 -106.5t106.5 -44.5h51h27q-2 7 -2 24v278q0 62 44.5 106.5t106.5 44.5h24q62 0 106.5 -44.5t44.5 -106.5v-275q0 -17 -2 -25h54q62 0 106.5 44.5t44.5 106.5
v388h-5z" />
    <glyph glyph-name="shouye2" unicode="&#xe645;" 
d="M1009 413l-480 481q-9 4 -17 0q-10 4 -15 0l-480 -481q-9 -8 0 -17l17 -17q3 -4 8 -4t9 4l34 34v-339q0 -82 59 -141t141 -59v0h51h46h64h156h63h71q82 0 141 59t59 141v339l34 -34q9 -8 17 0l17 17q15 8 5 17zM638 -52q0 -6 -1 -13.5t-1 -11.5h-219q-3 8 -3 25v275
q0 42 29 71t71 29h24q42 0 71 -29t29 -71v-275z" />
    <glyph glyph-name="wode" unicode="&#xe646;" 
d="M966 -84q-2 31 -7 58q-10 59 -35 113q-46 96 -127 160q-64 52 -142 77q-2 1 -5.5 2t-4.5 2h1q37 18 65 43q43 38 70 88q36 71 33 152q-2 26 -6 48q-18 81 -76 143q-26 27 -56 46q-67 42 -145 47q-23 2 -43 0q-26 -2 -48 -8q-79 -19 -138 -74q-39 -37 -62 -84
q-35 -69 -31 -147q0 -20 5 -42q16 -83 73 -145q38 -41 88 -66q1 -1 1.5 -1t0.5 -1q-22 -7 -31 -11q-21 -9 -31 -13q-86 -41 -149 -113q-32 -38 -57 -84q-29 -54 -43 -118q-6 -30 -7 -55q-1 -14 -2 -21q0 -17 1 -19q2 -9 9.5 -15t17.5 -5q9 1 15.5 7.5t7.5 16.5v12t1 12
q0 16 3 37q7 40 18 72q29 80 88 142q40 41 88 69q42 25 88 39q33 10 67 14q22 3 45 3h3h8q2 0 2 -1h16q28 -2 52 -6q54 -11 102 -34q80 -38 137 -107q49 -60 72 -133q12 -38 17 -79q2 -18 2 -40q0 -11 7.5 -18t17.5 -7q11 0 18 7.5t7 17.5q-1 7 -1 19v0zM556 352
q-21 -4 -43 -4h-3h-2h-7q-6 -1 -28 2q-39 6 -76 25q-16 8 -30 17q-34 24 -57 55q-26 34 -39 76q-9 28 -12 63q0 24 2 44q7 47 29 85q23 42 57 70q31 26 69 41q38 16 83 18q18 1 32 0q17 -1 36 -5q38 -9 72 -29q31 -18 56 -43q17 -20 26 -33q22 -32 32 -67q9 -30 11 -62
q0 -14 -1 -31q-2 -16 -7 -38q-9 -36 -25 -63q-23 -40 -55 -66q-25 -22 -56 -36q-37 -14 -64 -19v0z" />
    <glyph glyph-name="wode2" unicode="&#xe647;" 
d="M929 -125h10h1q5 0 11 3q18 10 18 31v1v4q0 29 -7 58q-12 63 -37 112q-42 92 -127 161q-70 55 -143 78q-2 0 -5.5 1.5t-4.5 1.5h2q26 13 66 43q39 33 71 88q37 75 34 151q0 24 -8 49q-18 82 -75 144q-30 30 -56 46q-70 43 -144 46h-44q-45 -6 -49 -7q-77 -18 -139 -75
q-36 -34 -63 -83q-35 -67 -32 -149q0 -17 5 -42q13 -75 73 -143q33 -36 88 -66q2 0 2 -3q-5 -1 -16 -4.5t-15 -5.5q-5 -2 -16 -5.5t-16 -6.5q-82 -37 -149 -112q-35 -43 -58 -83q-31 -58 -42 -117q-7 -26 -7 -56q0 -14 -2 -22v-19q1 -10 9 -16t17 -4h788h60v1zM560 350
q-8 -1 -22.5 -2.5t-21.5 -2.5h-3h-2h-8q-4 0 -14 1.5t-15 1.5q-42 7 -75 24q-5 2 -15 8.5t-15 8.5q-28 19 -58 54q-28 36 -39 75q-8 24 -12 64q0 29 2 44q8 45 29 85q24 43 59 71q29 26 68 41q47 17 83 17h34q15 0 34 -5q35 -6 73 -29q33 -21 56 -44q11 -11 27 -31
q18 -24 32 -66q10 -26 10 -61v-32q0 -21 -8 -39q-5 -26 -24 -63q-21 -35 -56 -66q-28 -25 -56 -37q-38 -14 -63 -17z" />
    <glyph glyph-name="wodeqiangdan" unicode="&#xe650;" 
d="M951 355v-385q0 -41 -29 -69.5t-69 -28.5h-682q-40 0 -69 28.5t-29 69.5v385q-20 0 -34.5 14t-14.5 34v169q0 20 14.5 34t34.5 14h122h37l-76 56q-36 28 -42.5 74t20.5 82l15 20q27 36 73.5 42.5t84.5 -20.5l220 -163q9 -8 24 -27l190 144q37 27 83 20.5t76 -42.5l14 -20
q28 -36 21.5 -82t-43.5 -74l-9 -7h68q20 0 34.5 -14.5t14.5 -34.5v-168q0 -22 -14.5 -36.5t-34.5 -14.5zM122 -30q0 -21 14.5 -35t34.5 -14h682q20 0 34.5 14t14.5 35v385h-780v-385zM495 669l-219 163q-19 17 -45 14t-41 -23l-14 -20q-17 -20 -13.5 -45.5t25.5 -42.5
l127 -95h175q7 17 22 32q-7 10 -17 17zM873 754l-15 20q-16 20 -42 23.5t-46 -11.5l-219 -163v0h246l64 46q21 15 24.5 40t-12.5 45zM951 547q0 10 -7 17.5t-18 7.5h-828q-11 0 -18 -7t-7 -18v-122q0 -9 7 -16.5t18 -7.5h828q11 0 18 6.5t7 17.5v122z" />
    <glyph glyph-name="wodedingdan2" unicode="&#xe651;" 
d="M707 774h-195v12q0 46 -32 78t-78 32h-24q-46 0 -78 -32t-32 -78v-12h-122q-20 0 -34 -14.5t-14 -34.5v-804q0 -20 14 -34.5t34 -14.5h732q20 0 34 14.5t14 34.5v658zM731 681l120 -102h-120v102zM317 786q0 26 17.5 43.5t43.5 17.5h24q26 0 43.5 -17.5t17.5 -43.5v-12
h-146v12v0zM853 -79h-683q-24 0 -24 24v756q0 8 7 16t17 8h98v-304q0 -46 32 -78t78 -32h24q46 0 78 32t32 78v158q0 11 -7 17.5t-17.5 6.5t-17.5 -6.5t-7 -17.5v-158q0 -26 -17.5 -43.5t-43.5 -17.5h-24q-26 0 -43.5 17.5t-17.5 43.5v304h146h49h170v-195h195
q1 -112 1 -585q0 -24 -25 -24z" />
    <glyph glyph-name="zhaoxiangji" unicode="&#xe653;" 
d="M512 137q-85 0 -145.5 60.5t-60.5 145.5t60.5 145t145.5 60t145 -60t60 -145t-60 -145.5t-145 -60.5zM512 512q-70 0 -120 -49.5t-50 -120t50 -120t120 -49.5t120 49.5t50 120t-50 120t-120 49.5zM511.5 229q-46.5 0 -79.5 33t-33 79.5t33 79t79.5 32.5t79 -32.5
t32.5 -79t-32.5 -79.5t-79 -33zM511.5 418q-31.5 0 -54 -22.5t-22.5 -54t22.5 -54t54 -22.5t54 22.5t22.5 54t-22.5 54t-54 22.5zM912 659h-244v6q0 33 -24 57t-57 24h-153q-34 0 -57.5 -24t-23.5 -57v-6h-243q-19 0 -32 -13t-13 -32v-528q0 -19 13 -32.5t32 -13.5h802
q19 0 32 13.5t13 32.5v528q0 19 -13 32t-32 13zM388 665q0 18 13.5 31.5t32.5 13.5h153q18 0 31.5 -13.5t13.5 -31.5v-6h-244v6zM912 76h-802q-4 0 -7 3t-3 7v233h2h115q8 0 14 5t6 13v0q0 7 -6 12t-14 5h-115h-2v260q0 4 3 7t7 3h802q4 0 7 -3t3 -7v-260h-109
q-8 0 -13.5 -5t-5.5 -12v0q0 -8 5.5 -13t13.5 -5h109v-233q0 -4 -3 -7t-7 -3z" />
    <glyph glyph-name="mima" unicode="&#xe654;" 
d="M780 528h-5h-5v95q0 117 -74.5 195t-186.5 78q-110 0 -184 -78t-74 -195v-95h-8q-58 0 -99.5 -42.5t-41.5 -101.5v-368q0 -60 41.5 -101.5t99.5 -41.5h537q58 0 99.5 42.5t41.5 100.5v368q-1 60 -42.5 102t-98.5 42zM295 625q0 100 60.5 164.5t153.5 64.5q94 0 155.5 -65
t61.5 -164v-95h-434v95h3zM878 16q0 -42 -28.5 -72t-68.5 -30h-538q-40 0 -68.5 30t-28.5 72v368q0 42 28.5 72.5t68.5 30.5h15h37h434h52v0q40 0 68.5 -30.5t28.5 -72.5v-368v0zM507 329q-25 0 -43 -19t-18 -45q0 -37 32 -56v-105q0 -13 9.5 -22.5t22.5 -9.5t22.5 9.5
t9.5 22.5v105q31 19 31 56q-4 26 -22.5 45t-43.5 19z" />
    <glyph glyph-name="zhanghao" unicode="&#xe655;" 
d="M697 895h-370q-73 0 -124.5 -51t-51.5 -124v-671q0 -73 51.5 -124t124.5 -51h370q73 0 124.5 51t51.5 124v671q0 73 -51.5 124t-124.5 51zM829 49q2 -56 -37 -95t-95 -39h-370q-55 0 -94.5 39.5t-39.5 94.5v47h636v-47zM831 137h-636v548h636v-548zM195 729
q2 51 40.5 87.5t91.5 36.5h370q53 0 92 -36.5t42 -88.5h-636v1zM512 -56q21 0 37 15q14 14 14 37q0 21 -14 37q-14 14 -37 14q-21 0 -37 -14q-15 -15 -15 -37q0 -21 15 -37q16 -15 37 -15z" />
    <glyph glyph-name="yanzhengma2" unicode="&#xe656;" 
d="M918 628q-55 4 -103 20q-15 4 -31 10q-34 10 -83 36l-1 1q-12 6 -24 13q-15 9 -33 20l-0.5 0.5l-0.5 0.5q-12 8 -23 15q-4 3 -15 11q-1 1 -5 4t-6 4q-43 32 -80 68q-37 -36 -80 -68q-2 -1 -6 -4t-5 -4q-11 -8 -15 -11q-11 -7 -23 -15l-0.5 -0.5l-0.5 -0.5
q-18 -11 -33 -20q-12 -7 -24 -13q0 -1 -1 -1q-49 -26 -83 -36q-16 -6 -30 -10q-49 -16 -104 -20v0q1 -8 3 -61h1q13 -180 50 -282q0 -2 1.5 -5t1.5 -5l1 -1.5t1 -2.5q47 -122 126 -206.5t177 -116.5v-1q22 -7 43 -11q21 4 44 11v1q97 32 176 116.5t126 206.5q1 1 1.5 2.5
l0.5 1.5q1 2 2 5t1 5q37 102 50 282h1q3 53 3 61v0zM871 586l-1 -9q-1 -3 -1 -7q-12 -174 -47 -271q-1 -2 -2 -6l-2 -4q0 -2 -1 -3q-44 -113 -116 -191t-159 -107l-6 -2q-12 -4 -23 -6q-11 2 -23 6l-6 2q-87 29 -159 107t-116 190q0 2 -1 5q-1 0 -2 3q-1 4 -2 6
q-35 97 -47 271q0 4 -1 7l-1 9v5q38 5 70 16q15 4 32 10q38 12 90 40q1 0 2 1q12 6 25 14q15 9 34 21q1 0 1 1q13 8 24 16q5 3 14 9l3 2l4 3q5 4 7 6q27 20 52 42q25 -22 52 -42q3 -2 8 -6l4 -3l1 -1q10 -7 14 -10l24 -16l2 -1q19 -12 34 -21q13 -8 25 -14q1 -1 2 -1
q52 -28 91 -40q16 -6 30 -10q33 -11 71 -16v-5zM711 484l-234 -240l-120 123q-6 7 -15 7t-15 -6.5t-6 -15.5t6 -16l135 -138q6 -6 15 -6t15 6l249 256q7 6 7 15t-6.5 15.5t-15.5 6.5t-15 -7z" />
    <glyph glyph-name="yanzhengma3" unicode="&#xe657;" 
d="M520 26q-77 -77 -184.5 -77t-183.5 76.5t-76 184t76 183.5q68 68 164 75t172 -48l331 331q8 8 19.5 8t19.5 -8t8 -19.5t-8 -19.5l-39 -38l97 -97q8 -8 8 -19.5t-8 -19.5t-19.5 -8t-19.5 8l-96 97l-58 -58l96 -97q8 -8 8 -19t-8 -19.5t-19 -8.5t-19 8l-97 97l-155 -155
q69 -76 66.5 -180t-75.5 -177zM191 354q-60 -60 -60 -145t60 -145t145 -60t145 60t60 145t-60 145.5t-145 60t-145 -60.5z" />
    <glyph glyph-name="kaideng" unicode="&#xe658;" 
d="M512 896q-104 0 -199 -40.5t-163.5 -109t-109 -163.5t-40.5 -199t40.5 -199t109 -163.5t163.5 -109t199 -40.5t199 40.5t163.5 109t109 163.5t40.5 199t-40.5 199t-109 163.5t-163.5 109t-199 40.5zM404 15l38 308h-149l327 430l-38 -308h149z" />
    <glyph glyph-name="gerenxinxi" unicode="&#xe659;" horiz-adv-x="1030" 
d="M594 280q81 41 129 118t48 171q0 89 -42.5 163.5t-116 117.5t-160.5 43t-160.5 -43t-116.5 -117.5t-43 -163.5q0 -93 49 -170.5t129 -118.5q-127 -43 -212 -150t-98 -243h57q16 146 121 247.5t252 110.5q4 0 12.5 1.5t12.5 1.5t12.5 -1.5t12.5 -1.5q145 -9 251 -110.5
t122 -247.5h57q-17 137 -103 243.5t-213 149.5zM452 289q-114 0 -194.5 81.5t-80.5 196.5q0 116 80.5 196.5t194.5 80.5t194.5 -81.5t80.5 -195.5q-2 -115 -82.5 -196.5t-192.5 -81.5zM803 773h226v-49h-226v49zM837 616h192v-49h-192v49zM803 458h226v-49h-226v49z" />
    <glyph glyph-name="erweima1" unicode="&#xe65a;" 
d="M0 896v-397h371v397h-371zM314 557h-256v281h256v-281zM653 896v-397h371v397h-371zM966 557h-256v281h256v-281zM0 269v-397h371v397h-371zM314 -70h-256v281h256v-281zM0 410h198v-58h-198v58zM826 410h198v-58h-198v58zM486 582v-172h-147v-52h147v-147h52v371h-52z
M486 896h58v-173h-58v173zM486 45h58v-173h-58v173zM966 269v-339h-313v-58h371v397h-58zM851 269h-198v-199h57v141h141v58z" />
    <glyph glyph-name="liangtishuju" unicode="&#xe65d;" 
d="M987 611h-263q3 19 7 63q5 31 20.5 60.5t34 49.5t36 35.5t29.5 22.5l12 8l-24 41q-5 -2 -16.5 -9.5t-34.5 -27t-43.5 -42.5t-38.5 -58.5t-23 -72.5q-5 -21 -10 -70h-288v-239h295q15 -79 51 -142q5 -7 13.5 -21.5t13.5 -21.5q3 -4 6.5 -10t5.5 -10q-62 -37 -134.5 -53
t-132.5 -14t-122.5 15.5t-99 26.5t-66.5 27q0 2 4 7.5t5 10.5q6 7 27 43q48 81 59.5 190.5t-10.5 260.5q-5 32 -19 62t-30.5 52t-36 41t-34.5 30t-26.5 19t-12.5 9l-24 -42q5 -3 13 -8t29 -22t37.5 -36t32.5 -49t20 -60q43 -277 -42 -420q-3 -4 -12 -19t-15 -22
q-22 -36 -32.5 -56t-26 -60.5t-25 -95t-16.5 -130.5l49 -2q12 169 59 258q158 -75 326 -75q154 0 278 75q44 -83 56 -258l49 2q-5 76 -14 130.5t-24.5 94.5t-27 61.5t-34.5 55.5q-7 12 -27 41q-29 51 -43 117h260v237zM622 425v83h-49v-83h-49v86h-49v-86h-36v132h231
q-4 -80 3 -132h-51zM934 425h-34v83h-49v-83h-42v86h-48v-86h-37q-6 53 -2 132h214v-132h-2zM105 433l34 -37l61 61l34 34l-95 95l-34 -34l36 -36h-104v-49h104zM490 201zM453 201q0 15 11 26t26 11t26 -11t11 -26t-11 -25.5t-26 -10.5t-26 10.5t-11 25.5z" />
    <glyph glyph-name="wodexiaoxiicon" unicode="&#xe65f;" 
d="M513 896q-104 0 -199 -36t-164 -97.5t-109.5 -145.5t-40.5 -177q0 -111 51.5 -205.5t143.5 -157.5q1 0 0 -205v0l193 124q58 -12 121 -12q105 0 200 36t164 97t109.5 145.5t41 177.5t-40 177t-108.5 145.5t-163 97.5t-199 36zM513 41q-73 0 -139 17l-128 -79v129
q0 3 -17 15q-82 55 -128.5 138t-46.5 179q0 109 61.5 201t166.5 145t229 53t229 -53t166.5 -145t61.5 -201q0 -108 -61 -200t-165.5 -145.5t-228.5 -53.5zM745 549h-455q-12 0 -20.5 -8.5t-8.5 -20.5t8.5 -20.5t20.5 -8.5h455q12 0 20.5 8.5t8.5 20.5t-8.5 20.5t-20.5 8.5z
M680 348h-349q-10 0 -17.5 -7t-7.5 -17v-8q0 -10 7.5 -17.5t17.5 -7.5h349q10 0 17 7.5t7 17.5v8q0 10 -7 17t-17 7z" />
    <glyph glyph-name="shezhi" unicode="&#xe660;" 
d="M897 349q1 22 1 36q0 19 -1 35l89 72q15 12 18.5 30t-6.5 35l-96 167q-9 17 -26.5 23t-35.5 -1l-106 -43q-29 21 -60 36l-16 114q-3 18 -17.5 30.5t-32.5 12.5h-192q-19 0 -33 -12.5t-17 -31.5l-17 -113q-31 -16 -60 -36l-105 43q-17 6 -35.5 -0.5t-26.5 -22.5l-97 -167
q-9 -17 -5.5 -35.5t18.5 -30.5l89 -71q-2 -21 -2 -35q0 -20 2 -36l-90 -71q-14 -12 -17.5 -30.5t5.5 -34.5l96 -168q10 -16 27.5 -22.5t35.5 0.5l105 43q30 -21 61 -36l16 -114q3 -19 17 -31t33 -12h192q18 0 32.5 12.5t17.5 31.5l16 113q34 17 60 36l106 -43q8 -4 18 -4
q30 0 44 26l96 168q9 16 6 34.5t-18 30.5zM860 73l-119 48q-15 6 -27 -3q-37 -29 -75 -44q-14 -6 -16 -21l-18 -126l-186 -2l-18 128q-2 15 -16 21q-39 16 -75 44q-7 5 -17 5q-5 0 -10 -2l-115 -49l-97 164l102 80q12 9 10 25q-4 26 -4 43.5t4 43.5q2 15 -10 25l-101 76
l92 167l119 -48q15 -6 27 3q37 29 75 45q14 6 16 21l15 125l189 3l18 -128q2 -16 16 -21q39 -17 75 -45q12 -9 26 -3l115 49l97 -164l-101 -80q-12 -9 -10 -24q3 -26 3 -44t-3 -44q-2 -15 10 -24l100 -77zM512 587q-83 0 -142 -59.5t-59 -143.5t59 -143.5t142 -59.5
t142 59.5t59 143.5t-59 143.5t-142 59.5zM512 235q-61 0 -104 44t-43 105.5t43 105.5t104 44t104.5 -44t43.5 -105.5t-43.5 -105.5t-104.5 -44z" />
    <glyph glyph-name="wodeshangjizhuanhuan" unicode="&#xe662;" 
d="M993 306q-25 28 -62.5 28t-69.5 -28q-25 -23 -89 -77.5t-85 -70.5q-74 -51 -167 -84.5t-146 -33.5q-8 0 -14.5 1.5t-9.5 2.5t-4 1v3q4 9 36 31q4 4 12 9.5t10 6.5q68 57 49 109q-9 26 -35.5 36t-59.5 -3q-6 -2 -26 -19q-43 -31 -64 -45q-55 -35 -113.5 -53t-99.5 -18h-13
q-13 0 -21 -4.5t-11 -14t-3.5 -15.5t-0.5 -16v-130q0 -30 15 -40t32 -10h266h37q421 0 575 183q43 51 60.5 90t25.5 80q5 48 -24 81zM969 232q-6 -34 -21.5 -67t-54.5 -80q-135 -164 -537 -164h-37h-266v2v132v2q51 0 115.5 21.5t124.5 56.5q17 12 42.5 29.5t26.5 17.5
q3 4 10.5 9t7.5 6q7 4 17 2t14 -9q3 -8 -6 -23.5t-30 -32.5q-1 -2 -19 -15t-26 -20t-17.5 -19.5t-11.5 -24.5q-3 -25 12 -41q18 -21 65 -21q62 0 161.5 37t177.5 89q27 19 179 149q16 16 33.5 16.5t30.5 -13.5q14 -14 9 -39zM533 577l98 76q9 9 0 16l-17 17q-8 9 -16 0
l-87 -69l-88 69q-9 9 -16 0l-16 -17q-9 -8 0 -16l95 -76v-3v-37h-88q-12 0 -12 -12v-26q0 -12 12 -12v2h87v-78h-87q-12 0 -12 -12v-25q0 -12 12 -12h87v-94q0 -12 12 -12h24q12 0 12 12v90h87q12 0 12 12v26q0 12 -12 12h-87v76h87q12 0 12 12v26q0 12 -12 12h-87v38v5z
M172 299q-57 105 -50 188q8 103 66 187.5t149 129.5t193 39q103 -8 186.5 -66t128 -149.5t37.5 -195.5l52 -3q8 117 -42 221.5t-145 170.5t-211 74t-219.5 -43t-168.5 -147t-73 -214q-11 -121 59 -228z" />
    <glyph glyph-name="piyi" unicode="&#xe664;" 
d="M908 682q-5 27 -63 56t-114 45l-56 15q-19 45 -23 70q-2 10 -37 17t-69 9l-34 2h-5t-12 -0.5t-18 -1.5t-21.5 -2.5t-23 -3t-21.5 -3.5t-19 -5t-13.5 -6.5t-6.5 -7.5q-2 -12 -7.5 -29.5t-10.5 -28.5l-5 -12q-9 -2 -24 -6.5t-54 -17t-69.5 -25.5t-56.5 -31.5t-29 -35.5
q-4 -26 -15.5 -229t-21 -389.5t-9.5 -189.5h163l7 489q2 28 7 28q4 0 7 -31q2 -12 2 -393q0 -2 1.5 -6.5t9.5 -14.5t20.5 -18t38 -14.5t58.5 -6.5q52 0 105 11v903q-19 -2 -38 -2q-17 0 -27 3t-5 11q13 18 84 18h9h9q68 0 82 -18q5 -8 -4.5 -11t-28.5 -3l-37 2v-905
q52 -12 105 -12q33 0 58.5 6.5t38 15t20 18t9.5 14.5t2 7v393q0 33 4 33q2 0 5 -7.5t5 -15.5l2 -8l9 -486h163q-37 750 -46 810zM442 773v-817q-42 -5 -58 -5q-36 0 -56.5 7.5t-24.5 15.5v105h88v47h-88q0 223 -3 239q-7 70 -53 70q-14 0 -24 -6t-15 -12.5t-8.5 -19
t-4.5 -17t-2 -15.5v-2v-2l-7 -442h-67q31 646 44 751q12 16 71 40t127 42l23 4l9 24q0 2 3 4q17 -11 46 -11zM838 -81l-7 442v4v5q-3 13 -5.5 20.5t-8.5 20.5t-16.5 20t-25.5 7v0q-51 0 -51 -77v-235h-89v-47h86v-105q-17 -23 -81 -23q-16 0 -58 5v817q29 0 49 14l2 -5
l9 -23l24 -5q67 -18 126 -42t71 -39q4 -31 45 -752h-70v-2z" />
    <glyph glyph-name="zhongkuzhuanhuan" unicode="&#xe665;" 
d="M911 -128h-283q-17 0 -31.5 12t-19.5 39q-3 18 -16.5 114t-25.5 183.5l-12 87.5q-49 -356 -51 -385q0 -21 -16.5 -36t-34.5 -15h-310q-23 0 -38.5 13t-12.5 38q2 16 21.5 259.5t38 478t18.5 235.5h749q75 -944 78 -973q0 -22 -15.5 -36.5t-38.5 -14.5zM499 845h-154v-90
q0 -13 -12 -13h-27q-12 0 -12 13v90h-105l-78 -922h310q49 347 78 512v410zM601 845h-51v-281q0 6 13 12t25.5 15.5t12.5 24.5v229zM833 845h-181v-256q0 -13 -16 -27t-35 -24.5t-35 -24.5t-16 -27q0 -43 19.5 -183t39 -261.5t19.5 -118.5h283z" />
    <glyph glyph-name="lifuzhuanhuan" unicode="&#xe666;" 
d="M805 -79q0 -16 -17 -32.5t-32 -16.5h-49q-6 0 -40.5 24.5t-56.5 24.5q-19 0 -47 -24.5t-51 -24.5t-53 24.5t-45 24.5t-35 -24.5t-38 -24.5h-48q-22 0 -48 14t-26 35v17.5v30t0.5 37t2.5 47.5t4.5 53.5t7 63t10.5 68.5q8 47 26 98t37.5 91.5t38 74t31.5 54.5t13 23
q1 4 -11 34.5t-25 70.5t-13 66q0 62 49 70v64q0 12 12 12h25q12 0 12 -12v-64q16 -2 34.5 -7.5t28.5 -9.5l10 -5q37 18 73 22v64q0 12 12 12h25q4 0 8 -3.5t4 -8.5v-66q22 -7 35.5 -26t13.5 -42t-25 -94t-24 -77q0 -3 12.5 -19.5t31 -44.5t38 -65.5t37.5 -94t27 -117.5
q25 -183 25 -317zM317 -79q12 0 43.5 24.5t53.5 24.5q18 0 39 -12.5t37 -24.5t22 -12t20.5 12t35 24.5t42.5 12.5q28 0 71.5 -24.5t49.5 -24.5q15 0 20 5t5 19q0 86 -5 146h-66q-22 0 -39.5 12.5t-33.5 12.5q-15 0 -43 -12.5t-55 -12.5q-26 0 -42.5 12.5t-30.5 12.5
q-16 0 -28 -12.5t-23 -12.5h-117q-5 -56 -5 -121q0 -32 12 -40.5t37 -8.5zM610 774q-18 0 -42.5 -6t-39.5 -12l-16 -6q-29 17 -73 24h-10h-2h-10q-27 -6 -27 -49q0 -12 24.5 -73.5t24.5 -72.5q0 -2 -10 -27q5 -1 32.5 -11.5t50.5 -10.5q16 0 32 4t34 10t27 8l-20 27
q46 134 49 146q0 2 1.5 12.5t1 17t-7 13t-19.5 6.5zM631 506q-73 -24 -121 -24q-20 0 -41 4t-41.5 10t-27.5 7q-3 -5 -18 -36t-22.5 -48t-20.5 -48t-22 -60q-26 -83 -39 -171h112q3 0 17.5 12.5t31.5 12.5q11 0 18.5 -6.5t19.5 -12.5t35 -6q29 0 55 12.5t43 12.5t32.5 -12.5
t40.5 -12.5h61q-2 16 -13 98q-21 137 -100 268z" />
    <glyph glyph-name="lianyiqunzhuanhuan" unicode="&#xe667;" 
d="M878 -79q0 -15 -9.5 -26t-23.5 -15.5t-23.5 -6t-16.5 -1.5h-586q-20 0 -46.5 17t-26.5 32q0 59 34.5 159t75.5 187t75.5 164.5t34.5 98.5q0 29 -24.5 86t-49 104.5t-24.5 53.5v73q0 14 34 31.5t64 17.5q7 0 17 -5q5 5 7 5h268q24 0 61 -16t37 -33v-73q0 -4 -24.5 -54.5
t-49 -108.5t-24.5 -81q0 -15 34.5 -91t75.5 -163t75.5 -189.5t34.5 -165.5zM195 -55q0 -7 3 -12t6 -7.5t9.5 -3.5t9.5 -1.5t11.5 0t9.5 0.5h97v85q0 12 13 12h24q12 0 12 -12v-85h98v109q0 13 12 13h24q12 0 12 -13v-109h98v61q0 12 12 12q8 0 22.5 -3.5t14.5 -8.5v-61h97
q2 0 11.5 -0.5t13.5 0t11 2.5t10 7.5t3 14.5q0 24 -7 56.5t-21.5 74t-27.5 76.5t-35.5 86t-35.5 79t-36.5 78t-29.5 62h-248q-12 -28 -52.5 -116.5t-66.5 -149t-50 -133.5t-24 -113v0zM453 847q39 -24 59 -24q29 0 68 24h-127zM707 774v49q0 16 -16.5 23.5t-27.5 3.5
q-1 0 -2 -1.5t-3 -1.5q-12 -16 -62 -44.5t-84 -28.5q-22 0 -48.5 11t-45 23.5t-35 25.5t-17.5 13q-8 4 -28.5 -5.5t-20.5 -18.5v-49q0 -6 48.5 -111t48.5 -133q0 -9 -7 -24h210q-7 18 -7 24q0 23 48.5 130.5t48.5 113.5z" />
    <glyph glyph-name="xiebaopeishizhuanhuan" unicode="&#xe668;" horiz-adv-x="1229" 
d="M1094 141v-243q0 -11 -13 -15.5t-26 0t-13 15.5v243v5.5v5.5t-0.5 4t-1.5 3.5t-2 2.5t-3 2.5t-4.5 1.5t-6.5 1h-9q-31 0 -86 -26t-101 -82q-27 -33 -57.5 -82t-49 -77t-28.5 -28h-374q-4 0 -7.5 1t-6.5 2t-5 3t-3 4t-2 5.5t-1.5 5.5t-0.5 7.5t-0.5 7.5t0 8t0.5 9v52
q0 6 2.5 12.5t7.5 11.5t10.5 9.5t11 8t10 6t7.5 4l3 1.5h-292q-28 0 -40.5 11t-12.5 48q0 68 79 269q8 19 13 36.5t8 28.5t4.5 23t1.5 17.5t-0.5 16t-0.5 12.5q0 13 3.5 19t8 7t15.5 1h588q26 0 26 -27q0 -9 4.5 -27t12 -44t9.5 -37q2 -7 3 -14t1 -11t1 -7.5t2 -4.5
t3.5 -0.5t6 3t10.5 8.5q33 26 187 187q5 5 13 14q44 46 59 57t36 11q15 0 22.5 -2.5t16.5 -11.5t14 -12q25 -22 52 -72.5t27 -115.5q0 -34 -20.5 -79.5t-45.5 -81.5t-45.5 -68.5t-20.5 -42.5zM667 466h-480q-12 0 -18 -4t-7 -8.5t-1 -13.5q0 -6 6.5 -23.5t25.5 -46.5
t46.5 -54.5t77 -44.5t110.5 -19t110.5 18t77.5 42.5t46.5 52.5t25 47t6.5 28q0 26 -26 26zM723 331q-28 -44 -110.5 -89t-182.5 -45q-63 0 -117 16.5t-84.5 38t-52 43.5t-30 32.5t-8.5 3.5q-2 -13 -40.5 -110.5t-38.5 -105.5q0 -11 7.5 -18.5t18.5 -7.5h374q20 0 81.5 31.5
t79.5 49.5l109 109q-3 20 -6 52zM1094 571q-8 0 -19 -10.5t-38.5 -42t-50.5 -55.5q-4 -4 -33 -34.5t-48.5 -51t-55 -56.5t-65 -64.5t-64.5 -60.5t-68.5 -59.5t-63.5 -47.5q-61 -43 -123 -74.5t-89.5 -43.5t-27.5 -17q0 -10 10.5 -18t15.5 -8h293q8 0 16 7t10 19
q6 16 41.5 70.5t67.5 90.5q32 39 92 73.5t95 34.5q18 0 36.5 -1.5t27 -1.5t15.5 3q28 9 68 65.5t40 121.5q0 35 -10 67t-23.5 51.5t-27 31t-21.5 11.5zM614 571v24.5t-3 40t-9 53.5t-20 53t-33 50.5t-50.5 33.5t-71 14t-71 -14.5t-51 -34t-33 -51t-19.5 -54t-9.5 -54
t-3.5 -39.5v-22q0 -9 -13 -12.5t-26.5 0.5t-13.5 12v3q0 15 0.5 29.5t4.5 49.5t12 63.5t25.5 63.5t42 59t65 40.5t90.5 16.5t90.5 -16.5t65 -40t42 -58.5t25.5 -63.5t12.5 -63t4.5 -49v-30.5v-4q0 -8 -13 -13.5t-26.5 -2t-13.5 15.5z" />
    <glyph glyph-name="peishizhuanhuan" unicode="&#xe669;" 
d="M756 579q-32 0 -76.5 16t-69.5 40q-11 -7 -25 -7h-146q-14 0 -25 7q-25 -24 -69.5 -40t-76.5 -16q-40 0 -68.5 28.5t-28.5 69.5v121q0 41 28.5 69.5t68.5 28.5q38 0 91.5 -22t72.5 -51h7h146h7q19 29 72.5 51t91.5 22q40 0 68.5 -28.5t28.5 -69.5v-121q0 -41 -28.5 -69.5
t-68.5 -28.5zM390 750h-61q-12 0 -12 12v24q0 12 12 12h51q-18 20 -55 34.5t-57 14.5t-34.5 -14t-14.5 -35v-121q0 -21 14.5 -35t34.5 -14q22 0 59 13.5t53 35.5h-51q-12 0 -12 12v24q0 12 12 12h61v25zM585 750q0 11 -6.5 17.5t-17.5 6.5h-98q-11 0 -17.5 -6.5t-6.5 -17.5
v-49q0 -11 6.5 -17.5t17.5 -6.5h98q11 0 17.5 6.5t6.5 17.5v49zM805 798q0 21 -14.5 35t-34.5 14t-57 -14.5t-55 -34.5h51q12 0 12 -12v-24q0 -12 -12 -12h-61v-25h61q12 0 12 -12v-24q0 -12 -12 -12h-51q16 -22 53 -35.5t59 -13.5q20 0 34.5 14t14.5 35v121zM634 555
l122 -439l-220 -244l-219 244l97 439h220zM536 -55l171 171l-122 390h-122l-36 -146h97q12 0 12 -13v-24q0 -12 -12 -12h-97q-6 0 -10 7l-51 -202z" />
    <glyph glyph-name="weijinzhuanhuan" unicode="&#xe66a;" horiz-adv-x="1076" 
d="M1075 282q0 -25 -17 -42t-42 -17h-59v-323q0 -11 -8 -19.5t-20 -8.5h-376q-12 0 -20 8.5t-8 19.5v323h-466q-25 0 -42 17t-17 42v176q0 17 8 28q-8 12 -8 29v176q0 25 17 42t42 17h115v118q0 15 6.5 21.5t21.5 6.5h494q33 0 46 -18t13 -41v-87h261q25 0 42 -17t17 -42
v-176q0 -17 -7 -29q7 -11 7 -28v-176zM581 -69h59v102q0 6 5 11t10 5h29q5 0 10 -5t5 -11v-102h87v102q0 6 5 11t10 5h28q6 0 11 -5t5 -11v-102h59v292h-323v-292zM174 691h-87q-11 0 -19.5 -8t-8.5 -20v-146q0 -11 8.5 -19.5t19.5 -8.5h87v202zM494 809q0 11 -8.5 19.5
t-19.5 8.5h-202q-12 0 -20 -8.5t-8 -19.5v-381q0 -12 8 -20.5t20 -8.5h28v75q0 5 4.5 10t10.5 5h28q6 0 11 -5t5 -10v-75h59v75q0 5 4.5 10t10.5 5h28q6 0 10.5 -5t4.5 -10v-75q12 0 20.5 8.5t8.5 20.5v381h-3zM668 837h-87q-14 0 -21 -6t-7 -22v-59h146v59v4q0 7 -0.5 10.5
t-3 8t-9.5 5.5t-18 0zM1016 663q0 12 -8 20t-20 8h-435v-205h435q12 0 20 8.5t8 20.5v148zM1016 399q0 12 -8 20.5t-20 8.5h-435v-59q0 -20 -5.5 -24.5t-22.5 -4.5h-320q-8 0 -12.5 1t-10 8t-5.5 20v59h-90q-11 0 -19.5 -8.5t-8.5 -20.5v-87q0 -11 8.5 -19.5t19.5 -8.5h904
q11 0 19.5 8.5t8.5 19.5v87h-3z" />
    <glyph glyph-name="xizhuangzhuanhuan" unicode="&#xe66b;" horiz-adv-x="1199" 
d="M1167 88q-25 -18 -49.5 -26.5t-32.5 1.5q-18 30 -65.5 120t-71.5 150q-11 28 -34 94q-38 107 -45 108q-3 0 -3 -14q0 -97 28 -567q2 -27 -34.5 -53t-73.5 -26h-108q-8 0 -18.5 17t-10.5 37q0 13 -27 105t-27 111q0 -20 -27 -113.5t-27 -102.5q0 -21 -13 -39t-38 -18h-108
q-22 0 -52.5 26t-30.5 54q0 23 14.5 301t14.5 290q0 24 -24 -18q-4 -6 -5 -7q-41 -167 -82 -271q-22 -59 -57.5 -116t-50.5 -71q-4 -6 -33.5 2.5t-54.5 24t-20 27.5q1 2 17.5 36t35 75t40.5 92t40.5 104.5t28.5 96.5q6 24 13.5 60.5t12 57t11 47t11 41.5t10.5 30t12 23
t12 11q28 11 86 38.5t77 41.5q23 17 59.5 22.5t131 5.5t130 -4.5t60.5 -21.5q18 -12 55.5 -28.5t52.5 -25.5q6 -3 19.5 -10t20 -11t16 -12t15.5 -19.5t11 -26.5q6 -18 16.5 -67t27 -109t39.5 -120q48 -137 136 -296v0q1 -4 0.5 -10t-8.5 -21.5t-23 -25.5zM490 839v0
q-43 -57 -54 -80q-3 -7 3 -13t15 -16t10 -25q0 -8 -6 -24t-8.5 -29.5t7 -42t36.5 -66.5q31 -44 54 -71q-54 129 -54 179q-3 91 -3 188zM681 842h-83h-54l-1 -8t-2.5 -21t-3 -29.5t-2 -36.5t0 -40t2.5 -41.5t6 -39.5q18 -81 68 -188q57 122 69 188q6 35 7 75t-1 67t-4 50
t-2 24zM740 836h-5q2 -24 2.5 -76t-2.5 -106q-4 -41 -37 -131q44 49 62 77q17 23 17 42t-8.5 37.5t-8.5 28.5q0 16 14.5 32.5t14.5 21.5t-9 19t-23 32.5t-17 22.5zM1141 142q-12 19 -57.5 118t-78.5 178q-17 42 -39 122.5t-39.5 137t-29.5 64.5q-20 12 -71 34q17 -28 17 -34
q0 -8 -14.5 -26.5t-14.5 -27.5q0 -7 13 -33t16 -46q1 -18 -13.5 -35.5t-37 -38t-32.5 -34.5q-14 -21 -73.5 -89t-62.5 -74q-7 -11 -26 -11.5t-28 11.5q-2 2 -52 69t-94.5 129.5t-44.5 72.5q0 13 14.5 46l14.5 33q0 1 -14.5 20t-14.5 34q0 16 34 57q-1 0 -4 -1.5t-4 -1.5
q-23 -14 -61 -31.5t-47 -22.5q-41 -22 -52 -108q-7 -58 -54 -216q-19 -64 -108 -270q-20 -42 -1 -46q15 -4 27 16q2 2 3 4q0 1 29 52.5t53 109.5q22 58 52 163.5t31 107.5q6 16 16.5 20.5t37.5 4.5q54 0 54 -54q0 -18 -14.5 -282.5t-14.5 -283.5q0 -25 10 -39.5t19 -14.5h82
q9 0 14.5 2.5t8.5 5.5t4.5 10t1.5 10v13.5v12.5q0 13 27 93t27 95q0 13 1.5 21t6 16.5t16 12.5t30 4t30 -4t16.5 -12.5t6.5 -16.5t1.5 -21t27 -89t27 -99q0 -31 6.5 -42.5t21.5 -11.5h54q27 0 42 13.5t12 40.5q-3 46 -15.5 269.5t-12.5 268.5q0 16 5 27.5t11 17t17 8t18 2.5
t18 -0.5t14 -0.5t6 -2.5t6.5 -7.5t7 -11t8 -16.5t8 -20.5t9.5 -26t10.5 -30t12 -35t14.5 -39q20 -57 54.5 -125t53.5 -99.5t29 -45.5q-1 -2 1 -2q11 -2 19 10q6 9 -1 20zM598 250q-11 0 -19.5 7.5t-8.5 18.5t8 18.5t20 7.5q11 0 20 -8t9 -18.5t-9 -18t-20 -7.5z" />
    <glyph glyph-name="txuzhuanhuan" unicode="&#xe66d;" horiz-adv-x="1166" 
d="M1082 423q-6 -18 -10 -21.5t-18 -3.5h-52q-3 0 -9.5 6t-12.5 13l-6 6v-498q0 -21 -14.5 -37t-35.5 -16h-686q-19 0 -36 17t-17 36v498q-13 -25 -27 -25h-53q-11 0 -28 25q-11 27 -44 122.5t-33 115.5q0 14 3.5 23.5t7.5 14t17 14.5q7 8 42 36.5t73.5 59.5t41.5 34
q64 53 78 53h28h80h421h2h53h52q10 0 23 -7t21.5 -13.5t21 -18.5t15.5 -14q7 -7 80.5 -66.5t76.5 -63.5q28 -27 28 -52q-1 -11 -19.5 -64t-40 -110.5t-23.5 -63.5zM446 843q21 -35 56.5 -56t78.5 -21q44 0 80.5 21t55.5 56h-271zM1082 686q-8 8 -54.5 47.5t-88.5 74.5
l-42 35h-122q-23 -58 -77 -94t-120 -36q-64 0 -117 36.5t-79 93.5h-119q-155 -132 -186 -157q-7 -6 -11 -14t-5.5 -13.5t0.5 -17.5t3.5 -17.5t6.5 -21.5t6 -22q7 -22 19.5 -54t22.5 -54.5t11 -21.5q4 2 26.5 24.5t26.5 28.5t28 6t24 -6v-551q0 -15 6 -20t22 -5h634
q12 0 19.5 7.5t7.5 17.5v551q0 9 12 10t24 -3t17 -7q3 -2 16 -17.5t24 -27t13 -8.5q0 3 7.5 19.5t20 47.5t24.5 63q20 60 19 75t-19 31z" />
    <glyph glyph-name="weiyizhuanhuan" unicode="&#xe66e;" 
d="M877 13h-95v-117q0 -13 -15.5 -18.5t-30.5 -5.5h-212h-46h-190q-14 0 -19 5.5t-5 18.5v117h-117q-9 0 -16.5 15t-7.5 31v582q0 20 31.5 57.5t63.5 58.5q16 12 45 30t50 29.5l21 11.5q13 7 25 24q5 7 22.5 18t32.5 18l15 8h166q31 -7 46 -24q5 -6 17 -16t29 -31
q17 -20 72 -40t69 -30q28 -20 50.5 -56t22.5 -58v-604q0 -13 -7.5 -18.5t-16.5 -5.5v0zM524 -79h212v209h-209v-209h-3zM736 176v46h-117v-46h117zM570 176v46h-94v-46h94zM313 -79h165v209h-165v-209zM313 176h116v46h-116v-46zM317 760q-34 -15 -53 -27q-35 -22 -65 -49
t-30 -43v-582h95v394h46v-185h163v373l-46 -71q-3 46 -24 71q-2 2 -23.5 28t-38.5 49.5t-24 41.5zM359 779q-5 -5 24 -46q12 -18 29.5 -36t29.5 -26l12 -9q12 35 0 47q-23 14 -44 43t-27 52zM595 850h-166q-7 0 -19 -12q11 -56 44 -81q17 -12 36.5 -25.5t21.5 -15.5
q22 11 58 41q34 27 44 81q-12 12 -19 12zM663 779l-25 25q-8 -25 -28 -53t-42 -40q-5 -5 -5 -16.5t2 -20.5l3 -9q5 3 13 8.5t27 24t30 37.5q29 39 25 44zM855 641q0 19 -6.5 30t-39.5 40q-32 27 -102 49q-8 -18 -25.5 -42t-38.5 -49t-24 -28q-9 -11 -15 -28.5t-8 -30.5
l-1 -12l-81 122l-19 -30h32v-394h209v185h46v-394h71q2 0 2 582zM548 385h47v-46h-47v46zM548 524h47v-46h-47v46zM595 37h-47v47h47v-47z" />
    <glyph glyph-name="baozhuanhuan" unicode="&#xe66f;" 
d="M914 -128h-804q-41 0 -69.5 28.5t-28.5 69.5l73 585q0 40 29 68.5t69 28.5h73q6 103 79 173.5t177 70.5t177 -70.5t79 -173.5h73q40 0 69 -28.5t29 -68.5l73 -585q0 -41 -28.5 -69.5t-69.5 -28.5zM512 847q-82 0 -142 -56t-65 -139h414q-5 83 -65 139t-142 56zM890 555
q0 20 -14.5 34t-34.5 14h-658q-20 0 -34.5 -14t-14.5 -34l-12 -91q153 -181 307 -219q8 28 30.5 45.5t52.5 17.5q27 0 49 -16t31 -42q51 15 102.5 44.5t92.5 64t67 59t46 46.5zM475 225.5q0 -14.5 11 -25.5t26 -11t26 11t11 25.5t-11 25.5t-26 11t-26 -11t-11 -25.5z
M909 401q-159 -159 -314 -200q-7 -27 -30 -44t-51 -17q-27 0 -49 15.5t-31 40.5q-59 11 -116.5 40t-99 65t-64 60t-37.5 43l-56 -434q0 -21 14.5 -35t34.5 -14h804q20 0 34.5 14t14.5 35z" />
    <glyph glyph-name="chenshanzhuanhuan" unicode="&#xe670;" horiz-adv-x="1047" 
d="M1034 580l-122 -123h-47l-73 73v-608q0 -22 -13 -36t-34 -14h-436q-30 0 -38.5 10.5t-8.5 39.5v608l-73 -73h-52l-122 123q-14 17 -14 26.5t14 22.5q8 7 68.5 61t117 105l56.5 51h144l25 50h197l25 -50h144q230 -204 242 -219q26 -22 0 -47zM379 799h-97l-220 -195
l97 -97l98 97q5 6 16 6.5t21 -7t10 -23.5v-658h144v780zM476 846l47 -50l50 50h-97zM598 824l-72 -73l-73 73h-24l72 -97v-803h47v803l75 97h-25zM767 799h-97l-72 -97v-778h144v658q0 11 20 21t28 4q4 -3 28.5 -27.5t46.5 -47.5l22 -22l97 97zM548 727h-47v24h50v-24h-3z
" />
    <glyph glyph-name="lianyikuzhuanhuan" unicode="&#xe671;" 
d="M780 -128h-170q-21 0 -35 14.5t-14 34.5v268q0 11 -7 17.5t-18 6.5h-48q-11 0 -18 -6.5t-7 -17.5v-268q0 -20 -14 -34.5t-35 -14.5h-170q-20 0 -34.5 14.5t-14.5 34.5v682q0 21 14.5 35t34.5 14h73v232q0 12 12 12h25q4 0 7 -2h5q38 0 63.5 -21.5t31.5 -56.5q2 0 2 -5
v-159h98v159q0 5 2 5q6 37 31 58.5t64 21.5h8h4h25q12 0 12 -12v-232h73q20 0 34.5 -14t14.5 -35v-682q0 -20 -14.5 -34.5t-34.5 -14.5zM414 750v48q0 27 -16.5 38t-31.5 11v-195h48v98zM610 798v-146h48v195q-8 0 -18 -3t-20 -15t-10 -31zM780 238v341q0 11 -6.5 17.5
t-17.5 6.5h-488q-11 0 -17.5 -6.5t-6.5 -17.5v-634q0 -11 6.5 -17.5t17.5 -6.5h122q11 0 17.5 6.5t6.5 17.5v268q0 20 14.5 34.5t34.5 14.5h98q20 0 34.5 -14.5t14.5 -34.5v-268q0 -11 6.5 -17.5t17.5 -6.5h122q11 0 17.5 6.5t6.5 17.5v293zM646 433h-268q-12 0 -12 12v24
q0 13 12 13h268q12 0 12 -13v-24q0 -12 -12 -12z" />
    <glyph glyph-name="changkuzhuanhuan" unicode="&#xe672;" 
d="M936 -104q-67 -24 -115 -24q-29 0 -44.5 11t-23.5 35q0 1 -87.5 338.5t-97.5 359.5q-9 17 -34 25.5t-50 1.5t-31 -27q-5 -19 -93 -364t-92 -356q-8 -24 -93 -24q-30 0 -73 18.5t-41 27.5q1 6 35.5 250.5t69 486l34.5 241.5h621q132 -931 139 -953q12 -37 -24 -47z
M314 850h-68q-5 -37 -12 -93q28 4 55.5 27.5t27.5 40.5q-3 8 -3 25zM707 850v-25q0 -17 26.5 -40t56.5 -28l-15 93h-68zM797 711q-23 2 -53.5 16.5t-57 42t-26.5 58.5v24h-185v-95q0 -13 11.5 -19t23.5 -6l11 1v-47h-21q-24 0 -46.5 16t-22.5 31v46v71h-68v-25
q0 -30 -26.5 -58t-57.5 -42.5t-53 -16.5q-10 -70 -32.5 -225.5t-39 -269.5t-23.5 -156q-4 -31 -11 -71q-8 -41 -5 -49t28 -16q7 -2 10 -3q41 -12 61.5 4t31.5 67q10 42 81.5 320.5t79.5 308.5q0 1 2 8t3 9t3.5 9t4.5 9.5t6.5 8.5t9 9t11 7t14 6t17.5 3.5t22 1.5
q53 0 80.5 -20.5t33.5 -50.5q8 -37 93.5 -362.5t91.5 -334.5q8 -6 34.5 -4t54.5 11t26 17q-1 4 -22.5 140.5t-49.5 322t-45 303.5z" />
    <glyph glyph-name="kuzhuangzhuanhuan" unicode="&#xe673;" 
d="M878 -128h-293q-19 283 -24 341q-2 26 -8.5 62.5t-11.5 61t-5 23.5h-48l-49 -488h-293q-20 0 -34 14.5t-14 34.5v621v305q0 20 14 34.5t34 14.5h732q20 0 34 -14.5t14 -34.5v-305v-621q0 -20 -14 -34.5t-34 -14.5zM146 -55q0 -11 7 -17.5t18 -6.5h224q1 8 2.5 24t2.5 25
h-254v-25zM146 579h25v146q-11 0 -18 -6.5t-7 -17.5v-122zM878 823q0 11 -7 17.5t-18 6.5h-682q-11 0 -18 -6.5t-7 -17.5v-25q0 -10 7 -17t18 -7h682q11 0 18 7t7 17v25zM536 725v-122h49v122h-49zM878 701q0 11 -7 17.5t-18 6.5v-146h25v122zM878 530h-61q-12 0 -12 12v25
v158h-178q7 -11 7 -24v-98q0 -20 -14.5 -34t-34.5 -14h-49v-98h-48v146v98v24h-269v-183q0 -12 -12 -12h-61v-512h259q34 336 34 366q1 14 36.5 20t71.5 0.5t38 -20.5q1 -8 7 -66.5t15 -149.5t15 -150h256v512zM878 -30h-254q1 -9 2.5 -25t2.5 -24h224q11 0 18 6.5t7 17.5
v25z" />
    <glyph glyph-name="yurongyizhuanhuan" unicode="&#xe674;" 
d="M975 274q0 -43 -12 -87q-4 -30 -13 -62t-9 -56q0 -38 -9.5 -60.5t-41.5 -60.5q-11 -13 -22.5 -27.5t-17 -21t-12.5 -13.5t-12 -9.5t-12 -2.5q-10 0 -22.5 3.5t-26.5 10.5t-24 22.5t-10 37.5q0 2 -0.5 6t-0.5 8.5t1 9.5h-61h-316h-61v-24q0 -39 -24.5 -56.5t-49.5 -17.5
q-6 0 -11 2.5t-12 9.5t-12 13.5t-16.5 21.5t-21.5 27q-31 38 -39.5 60.5t-8.5 60.5q0 22 -10 57q-39 70 -39 151v48q0 57 24 122v13v24q0 59 26.5 110.5t73.5 86.5q7 46 40.5 83t79.5 52q1 41 31.5 60.5t77.5 19.5h220q47 0 77.5 -19.5t31.5 -60.5q48 -15 80.5 -51.5
t39.5 -85.5q47 -34 73.5 -85t26.5 -112v-25v-12q24 -52 24 -122v-49zM344 806q0 -1 -1.5 -5t-1.5 -5q-52 -13 -86 -54t-36 -95q-44 -28 -70.5 -74.5t-26.5 -100.5v-25v-9q-24 -49 -24 -100v-98q0 -74 48 -139v-80q6 -19 35 -58.5t38 -39.5q8 0 12.5 2.5t8.5 13.5t4 33v122
h-37q-5 -2 -8.5 1t-3.5 9v24q0 12 12 12h37v25q0 29 10 121h-71q-12 0 -12 13v24q0 12 12 12h75q2 14 4 31t3.5 27.5t2.5 14.5q2 14 14.5 15.5t23.5 -4t11 -11.5q0 -2 -1.5 -11t-4 -27.5t-4.5 -34.5h120q12 0 12 -12v-24q0 -13 -12 -13h-127q-7 -62 -7 -121v-25h134
q12 0 12 -12v-24q0 -13 -12 -13h-134v-73h24h171v710q-55 3 -94 24.5t-50 53.5zM610 847h-196q-32 0 -30 -18q2 -21 42 -39q37 -16 86 -16q79 0 110 38q18 21 2 31q-5 4 -14 4zM926 335q0 51 -24 100v10v24q0 54 -26.5 101t-70.5 75q-2 54 -36.5 96t-85.5 53q0 2 -1.5 5
t-1.5 4q-9 -31 -49 -52.5t-95 -25.5v-707h171v0h24v0v73h-134q-12 0 -12 13v24q0 12 12 12h134v22q0 42 -9 124h-127q-12 0 -12 13v24q0 12 12 12h119q-2 15 -4.5 32t-3.5 25.5t-1 11.5q0 5 11 10.5t23 4t14 -14.5q1 -5 2.5 -14.5t3.5 -25.5t4 -29h76q12 0 12 -12v-24
q0 -13 -12 -13h-71q10 -97 10 -124v-22h36q13 0 13 -12v-24q0 -13 -13 -13h-34v-121q0 -32 6.5 -40.5t18.5 -8.5q9 0 38 39.5t35 57.5v81q48 56 48 139v97zM792 457h-195q-12 0 -12 12v25q0 12 12 12h195q13 0 13 -12v-25q0 -12 -13 -12zM719 628h-122q-12 0 -12 12v24
q0 13 12 13h122q12 0 12 -13v-24q0 -12 -12 -12zM427 457h-195q-13 0 -13 12v25q0 12 13 12h195q12 0 12 -12v-25q0 -12 -12 -12zM427 628h-122q-12 0 -12 12v24q0 13 12 13h122q12 0 12 -13v-24q0 -12 -12 -12z" />
    <glyph glyph-name="maoyizhuanhuan" unicode="&#xe675;" 
d="M890 -128h-110h-24h-622q-24 0 -24 49v658q0 15 5 29t17 27t23.5 24t31.5 23t33 20t37 19t34.5 15.5t34.5 14t28 11.5v85q0 20 14 34.5t34 14.5h195q20 0 34.5 -14.5t14.5 -34.5v-73q11 -5 29 -14t64.5 -34t81.5 -48t64 -51t29 -48v-683q0 -11 -6.5 -17.5t-17.5 -6.5z
M183 -79h49v24h-74q0 -9 6.5 -16.5t18.5 -7.5zM597 823q0 8 -5.5 16t-18.5 8h-146q-10 0 -17.5 -8.5t-7.5 -15.5v-49h195v49zM866 555q0 23 -41 56.5t-85 57t-70 32.5q-21 8 -48 24v0h-244q-7 -4 -15.5 -8t-18.5 -9t-15 -7q-1 -1 -13 -5.5t-20.5 -8t-23.5 -10.5t-26 -14
t-25.5 -16t-24.5 -19t-19 -21.5t-14 -25t-5 -26.5v-561h74v353q0 13 12 13h24q12 0 12 -13v-426h464v426q0 13 12 13h24q12 0 12 -13v-353h74v561zM792 -55v-24h49q9 0 17 6t8 18h-74z" />
    <glyph glyph-name="neiyizhuanhuan" unicode="&#xe676;" horiz-adv-x="1081" 
d="M1080 168q0 -63 -18 -114.5t-46.5 -84.5t-65 -55.5t-71.5 -32t-69 -9.5q-49 0 -77 4t-33.5 7t-22.5 15q-11 7 -44.5 34t-61.5 50.5l-28 23.5q-108 -85 -134 -108q-29 -26 -134 -26q-19 0 -49.5 8.5t-70.5 30.5t-74 53.5t-57.5 85t-23.5 118.5q0 44 12 88.5t27 74.5
t27.5 60t13.5 47q1 20 12.5 163t12.5 187q2 54 25.5 81t57.5 27t53.5 -11t28.5 -43q11 -39 45.5 -200.5t34.5 -177.5q0 -11 -13 -15.5t-26.5 0t-14.5 15.5q-2 16 -36 175.5t-44 202.5q-1 2 -6 4t-12 1t-14 -5.5t-13.5 -18t-8.5 -35.5q-26 -257 -26 -296q0 -8 1 -14t3.5 -11
t4.5 -7.5l8 -10t9 -11.5q8 -10 102.5 -97.5t185 -170l90.5 -82.5q366 340 378 350q11 8 18.5 23.5t7.5 30.5q0 8 -13 156t-13 168q-1 15 -15 24t-25.5 7.5t-13.5 -5.5q-3 -20 -37.5 -183t-41.5 -195q-3 -11 -16.5 -15t-25.5 0.5t-12 14.5q0 14 33.5 166.5t48.5 211.5
q1 9 3.5 16t4.5 12.5t6.5 9.5t6.5 6.5t8 4.5t8 3t9.5 1.5t9.5 0.5h10.5h10.5q28 0 52.5 -22t29.5 -58q7 -40 17.5 -167.5t8.5 -156.5v-80q0 -3 8.5 -14t20.5 -30t24.5 -45t20.5 -67t8 -88zM162 358q-12 11 -21 11t-13 -4.5t-11 -16.5t-9 -16q-15 -23 -34.5 -74.5
t-19.5 -87.5q0 -110 54 -162q50 -46 95 -67l95 294q-26 23 -57 51.5t-52 47.5t-27 24zM460 88q-7 8 -115 106l-88 -265h13q30 0 52.5 6.5t34.5 14.5t47 33q99 63 56 105zM679 -20q32 -22 45 -30.5t33.5 -15.5t45.5 -8l-83 250q-69 -62 -95 -88q-40 -40 54 -108zM972 327
q0 1 -4.5 11t-6.5 12.5t-7 8.5t-9 6t-11.5 -2.5t-15.5 -9.5q-6 -5 -29 -26t-59.5 -54t-65.5 -59l93 -280q53 16 113 72q33 31 43.5 70.5t10.5 88.5q2 36 -17.5 87t-34.5 75z" />
    <glyph glyph-name="doupengzhuanhuan" unicode="&#xe677;" horiz-adv-x="1130" 
d="M762 522q16 -9 149.5 -122.5t188.5 -162.5q32 -31 29.5 -63.5t-29.5 -41.5q-12 -4 -29.5 1t-32 8t-42.5 -9q-29 -13 -54 -67l3 -10h-8q-4 -7 -11.5 -23t-11 -23.5t-10 -17t-13.5 -14.5q-114 -105 -183 -105q-32 0 -91 13.5t-91 13.5q-33 0 -68 -13.5t-64 -13.5
q-26 0 -47 4t-46 12t-38 11q-30 7 -38.5 22.5t-12.5 55.5q-5 26 -26.5 61t-24.5 43q-6 12 -33 17t-59 6.5t-40 3.5q-16 6 -24.5 37.5t-2.5 67.5q3 14 28 41.5t65.5 62t75.5 63t74.5 59t44.5 34.5q81 62 81 74q0 3 -4 4q-15 4 -24.5 44.5t-1.5 84.5q12 61 182 207q6 4 10 6.5
t9.5 2.5t8 -1t11 -4t12.5 -4q2 -1 9 -3t8.5 -2.5t7.5 -3t9.5 -5.5t11 -8.5t15.5 -13t19 -18t25 -24.5q85 -85 78 -183q-2 -20 -15 -44.5t-12 -33.5q4 -8 6 -10.5t10 -6.5t16 -9zM553 833q-28 -4 -91 -70.5t-65 -85.5q43 27 78 27q22 0 41 -13.5t37 -13.5q17 0 49 13.5
t55 13.5q25 0 49 -19q-11 19 -26.5 41.5t-37.5 49.5t-46.5 43.5t-42.5 13.5zM405 599q8 -16 19 -26q10 4 48 -25t57 -53q1 -2 5 -7q9 -12 13.5 -16t11 -6t11 5t10.5 24q3 12 14 23t30 20.5t29 13.5t31 13v8q0 13 16 45q-17 35 -43 35q-17 0 -48 -13.5t-56 -13.5
q-16 0 -23.5 4t-9.5 8.5t-13 9t-32 5.5q-28 0 -45.5 -16t-24.5 -38zM708 497q-8 6 -18 17q-66 -33 -86 -70q-7 -13 -12.5 -47.5t-14 -58t-24.5 -23.5q-17 0 -26 21.5t-15.5 59t-10 48.5t-15.5 22.5t-20 16.5t-29.5 16t-23.5 12q-2 -2 -5.5 -5t-6.5 -6t-4 -5
q-23 -16 -176 -141t-165 -141q-13 -18 -5.5 -34.5t32.5 -16.5q46 0 83 -14l73 143h51l-78 -183q38 -81 51 -129q11 -33 53 -43l76 277h51l-78 -285q17 -1 68 13t87 14q32 0 85 -11t71 -13l-27 231h51l27 -231q71 15 132 102q4 5 12 17.5t12 17.5l-75 276h51l59 -217
q42 62 70 62q4 0 15.5 -0.5t16 -0.5t12.5 1t9.5 3t3.5 5.5t-1.5 9t-10.5 14t-19 19.5q-39 40 -153.5 135.5t-152.5 121.5z" />
    <glyph glyph-name="jiakezhuanhuan" unicode="&#xe678;" 
d="M964 -35v-69q0 -12 -7.5 -18t-15.5 -6h-72q-7 0 -15.5 7.5t-8.5 16.5v69q0 3 -11 10t-12 14q-1 5 -19 98t-35.5 183l-17.5 90q-21 -355 -24 -371q-1 -10 -12 -16t-11 -8v-69q0 -12 -7 -18t-17 -6h-334q-10 0 -16.5 7t-6.5 17v69q0 6 -11.5 11t-12.5 13q-1 6 -7 99
t-11.5 182t-5.5 90q-67 -357 -72 -371q-1 -4 -4 -8t-6 -7t-6 -5t-5 -3l-2 -1v-69q0 -10 -7 -17t-17 -7h-72q-12 0 -17.5 8.5t-5.5 15.5v69q-1 0 -4 1.5t-5.5 2.5t-5.5 3.5t-5 4.5t-3.5 5t-0.5 7l71 605l191 140l95 114h238l95 -116l191 -141q69 -583 71 -605q2 -11 -11 -15
t-13 -6zM893 -80h24v47h-24v-47zM369 -68q0 -12 12 -12h262q12 0 12 12v23q0 12 -12 12h-262q-12 0 -12 -12v-23zM107 -80h24v47h-24v-47zM155 570q-67 -512 -72 -534q-3 -14 4.5 -18.5t19.5 -4.5h48q9 0 14 11.5t10 35.5q0 2 18 104t34.5 192.5t18.5 98.5q4 15 25 15.5
t23 -15.5q45 -404 47 -419q2 -6 5 -11t6 -7.5t6 -3.5t5 -1h2h119v581q-96 11 -171 92zM607 801h-190l-65 -84q9 -11 20 -22t30 -25t48 -22.5t62 -8.5q100 0 169 69h-2zM941 36q-3 22 -72 534v0l-150 109q-96 -77 -183 -85v-581h119q24 0 24 23q0 16 21 206t26 213
q4 16 14.5 19.5t21 -3t12.5 -16.5q2 -9 34 -179t37 -192l3 -12q4 -17 5.5 -24.5t4.5 -16.5t5.5 -12.5t5.5 -3.5h48h4.5h4h4t4 1t3 2t2 2.5t1.5 3.5t1 5t0 7v0zM667 453h-95q-12 0 -12 12v24q0 12 12 12h95q12 0 12 -12v-24q0 -12 -12 -12z" />
    <glyph glyph-name="duankuzhuanhuan" unicode="&#xe679;" horiz-adv-x="1344" 
d="M1283 -128h-518q-26 0 -43.5 18t-17.5 43v93q0 33 32 54v256q0 13 -9 22.5t-23 9.5h-64q-13 0 -22.5 -9t-9.5 -23v-256q14 -7 23 -22t9 -32v-93q0 -26 -18 -43.5t-43 -17.5h-518q-24 0 -42.5 18.5t-18.5 42.5v93q0 18 10 34t25 23l87 813h1068l87 -806h6q26 0 43.5 -18.5
t17.5 -42.5v-93q0 -26 -18.5 -45t-42.5 -19zM61 -3v-32q0 -13 9 -22.5t23 -9.5h457q13 0 22.5 9t9.5 23v32q0 12 -9 22t-23 10h-457q-15 -3 -23.5 -11.5t-8.5 -20.5zM163 672l157 160h-138zM1130 835h-138l157 -160zM1162 586q-10 0 -13 3l-240 243v0h-496l-240 -240
q-10 -10 -19 0l-61 -502h457v278q0 26 18.5 43.5t42.5 17.5h122q26 0 43.5 -18t17.5 -43v-278h428zM1283 -3q0 12 -9 22t-23 10h-457q-13 0 -22.5 -9t-9.5 -23v-32q0 -13 9 -22.5t23 -9.5h457q13 0 22.5 9t9.5 23v32z" />
    <glyph glyph-name="nanzhuangpeishizhuanhuan" unicode="&#xe67a;" horiz-adv-x="1076" 
d="M998 282h-921q-33 0 -55 22t-22 54v26q0 33 22 55t55 22h102v230q0 85 60.5 145t144.5 60h307q85 0 145 -60t60 -145v-230h102q33 0 55 -22t22 -55v-26q0 -32 -22 -54t-55 -22zM845 691q0 64 -45 109t-109 45h-307q-63 0 -108.5 -45t-45.5 -109v-230h615v230zM1024 384
q0 12 -7 19t-19 7h-921q-12 0 -19 -7t-7 -19v-26q0 -11 7 -18t19 -7h921q12 0 19 7t7 18v26zM282 205q40 0 95.5 -23t75.5 -54h8h153h8q20 31 76 54t96 23q42 0 72 -30t30 -73v-128q0 -42 -30 -72t-72 -30q-34 0 -80.5 16.5t-73.5 42.5q-12 -8 -26 -8h-153q-14 0 -26 8
q-28 -24 -74.5 -41.5t-78.5 -17.5q-43 0 -73 30t-30 72v128q0 43 30 73t73 30zM794 -77q21 0 36 15t15 36v128q0 22 -15 37t-36 15t-60 -15.5t-58 -36.5h54q12 0 12 -12v-26q0 -13 -12 -13h-64v-25h64q12 0 12 -13v-26q0 -13 -12 -13h-54q17 -22 56 -36.5t62 -14.5zM461 0
q0 -12 7 -19t18 -7h103q11 0 18 7t7 19v51q0 12 -7 19t-18 7h-103q-11 0 -18 -7t-7 -19v-51zM230 -26q0 -21 15 -36t37 -15t61 14.5t56 36.5h-53q-13 0 -13 13v26q0 13 13 13h64v25h-64q-13 0 -13 13v26q0 12 13 12h53q-17 21 -56.5 36.5t-61 15.5t-36.5 -15t-15 -37v-128z
" />
    <glyph glyph-name="dayizhuanhuan" unicode="&#xe67b;" 
d="M866 43h-98v-134q0 -15 -11 -26t-26 -11h-438q-15 0 -26 11t-11 26v134h-98q-7 0 -15.5 6.5t-8.5 17.5q0 9 12 305t12 305q0 13 24.5 46.5t49.5 50.5q15 11 39.5 23t40.5 19t17 7l98 73h170l98 -73q71 -27 97 -49q12 -10 30.5 -34t30.5 -44l13 -19q24 -593 24 -610
q0 -12 -7 -18t-17 -6zM329 769q-21 -3 -49 -19q-25 -16 -49 -40.5t-24 -32.5q0 -5 -12 -280t-12 -281q0 -10 7 -17.5t17 -7.5h49v366q0 14 12 18.5t24.5 -1t12.5 -17.5v-512q0 -24 24 -24h98v439l48 97l-146 146l49 74l-49 24v68zM402 823l-24 -25v-73l49 -48l-49 -74
l122 -97l-25 97zM436 847l64 -170h24l64 170h-152zM646 808q-15 11 -29 22l5 -7l-98 -220v-121l122 121l-49 74v24l49 24v83zM817 677q-5 24 -34.5 48t-55.5 36.5t-32 12.5v-49l-49 -48l49 -49v-25l-220 -243v-439h220q24 0 24 24v512q0 13 12.5 17.5t24.5 -0.5t12 -17v-366
h49q6 0 10 1t9 7t5 17q0 41 -9 283.5t-15 277.5zM524 18q-11 0 -17.5 7t-6.5 18t6.5 17.5t17.5 6.5t18 -6.5t7 -17.5t-7 -18t-18 -7zM524 140q-11 0 -17.5 7t-6.5 18t6.5 17.5t17.5 6.5t18 -6.5t7 -17.5t-7 -18t-18 -7zM524 262q-11 0 -17.5 7t-6.5 17.5t6.5 17.5t17.5 7
t18 -7t7 -17.5t-7 -17.5t-18 -7z" />
    <glyph glyph-name="majiazhuanhuan" unicode="&#xe67c;" 
d="M900 -128h-776q-22 0 -36.5 14.5t-14.5 36.5v610q48 33 75.5 85t27.5 112v166h156q5 -65 52.5 -109.5t112.5 -44.5h27q66 0 114 45t52 109h156v-166q0 -60 27.5 -111.5t74.5 -85.5v-610q2 -22 -12 -36.5t-36 -14.5zM305 818q-6 14 -9.5 20.5t-4.5 7.5t-5 0t-6 -1h-2
q-49 0 -49 -27v-127q0 -31 -25.5 -75t-51 -80t-25.5 -50v-538q0 -14 5.5 -19.5t21.5 -5.5h336v434q-1 0 -19 43.5t-44.5 109.5t-51.5 129.5t-46.5 117.5t-23.5 61zM512 691q-40 0 -65.5 6t-31.5 12l-5 7q58 -193 78 -230q9 -17 19 -27t18.5 -9.5t13.5 10.5l102 256
q-4 -3 -13 -7t-42.5 -11t-73.5 -7zM900 479q0 13 -26 48.5t-51.5 79t-25.5 74.5v137q0 27 -48 27h-3q-4 0 -6 -1.5t-4.5 -6.5t-4 -9.5t-5 -14.5t-7.5 -19q-6 -17 -51 -127t-87 -212.5l-42 -102.5v-429h336q15 0 21 6t6 19q0 5 -1 257t-1 274zM809 50h-156q-12 0 -12 12v25
q0 12 12 12h156q13 0 13 -12v-25q0 -4 -3.5 -8t-9.5 -4zM395 50h-154q-12 0 -12 12v25q0 12 12 12h156q13 0 13 -12v-25q0 -4 -5 -8t-10 -4z" />
    <glyph glyph-name="waitao" unicode="&#xe67d;" horiz-adv-x="1236" 
d="M1039 655q-32 146 -97 159q-21 4 -67 24.5t-81 38.5l-35 19q-85 -174 -91 -597h-97q-6 423 -91 597q-136 -71 -183 -82q-69 -18 -100 -159q-20 -93 -80 -259.5t-117 -252.5l171 -86q9 16 23 43.5t45.5 100.5t48.5 133q2 6 5 18q16 55 23 79.5t16.5 54.5t15.5 40.5
t11 10.5h3q8 -15 6 -131t-9 -184q-12 -82 -59 -300l194 -44q9 -6 18 -6t17 5t17 17t14 38t5 64q0 13 1.5 60t1.5 78h97q0 -31 1.5 -78t1.5 -60q3 -124 53 -124q11 0 18 6l194 44q-47 221 -59 300q-10 66 -11.5 182.5t8.5 132.5h3q9 0 23 -40.5t43 -144.5q3 -12 5 -18
q15 -60 44.5 -129t51 -109t21.5 -39l171 86q-53 86 -111.5 250t-82.5 262zM518 49v-50q0 -56 -12 -74h-3l-147 32q41 199 47 256q6 39 12 189q1 67 -2 104t-6.5 45t-12.5 18q-14 15 -38 15q-36 0 -56 -42.5t-62 -195.5q-29 -107 -91 -224l-82 41q53 101 104.5 251t68.5 229
q32 115 68 124q47 11 147 61q84 -228 65 -779zM644 196h-58v44h58v-44zM995 349q-43 157 -61.5 197.5t-56.5 40.5v0q-19 0 -38 -15q-10 -9 -13.5 -18t-6 -45t-1.5 -104q0 -106 12 -189q19 -127 47 -256l-147 -32h-3q-9 26 -12 73v50q-1 87 -1.5 131t1.5 152.5t8 182
t20.5 163t36.5 151.5q100 -50 147 -62q40 -16 65 -123q16 -78 68 -228.5t105 -251.5l-82 -41q-64 137 -88 224zM718 896h-209l109 -197zM591 846h48l-21 -44z" />
    <glyph glyph-name="tongzhuang" unicode="&#xe67f;" horiz-adv-x="1025" 
d="M776 -2h-248v210h-37v-211h-248v519l-160 -62l-83 200l264 116h163l85 -140l86 140h163l264 -116l-83 -200l-160 62v-518h-6zM576 43h157v542l181 -72l48 117l-214 95h-126l-110 -183l-113 183h-128l-213 -94l48 -117l181 72v-539h157v210h128v-213h4v-1zM517 468z
M492 468q0 10 7 17.5t17.5 7.5t18 -7.5t7.5 -17.5t-7.5 -17.5t-18 -7.5t-17.5 7.5t-7 17.5zM517 326zM492 326q0 10 7 17.5t17.5 7.5t18 -7.5t7.5 -17.5t-7.5 -17.5t-18 -7.5t-17.5 7.5t-7 17.5z" />
    <glyph glyph-name="xiepin" unicode="&#xe680;" 
d="M696 -51q-73 0 -129.5 16.5t-100.5 64.5q-31 33 -74 114q-39 72 -66 105q-4 4 -8 10q-35 44 -64 60l-16 9v-356q0 -8 -5 -14.5t-13 -6.5h-103q-9 0 -15 6.5t-7 15.5q-3 212 -40 357q-5 19 -19 61q-21 62 -25 94q-18 134 52 221q46 56 74 56q5 0 10 -2q19 -6 41 -25
t34 -34t32 -41q6 -8 13 -17q67 -86 145 -203q1 -2 20 -32l34 -51t36 -47.5t43 -45t46 -28t54 -12.5v0q39 0 78 23q3 2 6 3q4 1 7 2h1q5 1 10 1q32 0 99 -41q12 -7 22 -13q69 -40 104 -70q67 -59 42 -106q-13 -23 -40 -38.5t-66.5 -22t-65 -8.5t-65.5 -3h-21q-37 -2 -60 -2v0
zM691 -7h14h14h30q136 0 201 32q25 12 27 24q2 13 -20 34q-29 29 -78 58q-32 20 -59 34q-4 2 -14 8q-41 26 -57 26h-2h-3l-2 -1q-44 -25 -91 -25q-59 0 -116.5 38t-99.5 104q-18 28 -31 49q-47 74 -73.5 114t-71.5 99t-88 101l-3 3q-15 16 -24 22l-7 4l-6 -5
q-16 -12 -29 -27q-33 -38 -45 -88t-6.5 -95t23.5 -86q35 -85 47.5 -184.5t15.5 -226.5v-11h58v363q0 11 9 16t18 5h5q38 -5 86 -48q29 -28 57 -66.5t43 -65t39 -72.5q27 -53 73.5 -91t104.5 -41q26 -1 57 -1h4v0z" />
    <glyph glyph-name="lianyiqun" unicode="&#xe681;" 
d="M249 159q-4 0 -7 1l-98 47h-1.5h-0.5q-16 10 -20 27q-4 24 15 50q72 119 99 337q13 102 13 195v0q0 36 19 54t40 19h1h81q11 0 15 -10q2 -3 4.5 -8t12 -16t20.5 -19.5t30 -15.5t40 -7q7 0 11.5 -4.5t4.5 -11.5t-4.5 -11.5t-11.5 -4.5q-62 0 -105 42q-16 15 -27 33h-70
q-5 0 -10.5 -2.5t-12 -12t-6.5 -25.5q2 -81 -13 -199q-28 -225 -104 -350q0 -1 -1 -2q-11 -15 -9 -24q1 -3 4 -5l97 -46q6 -3 8.5 -9.5t-0.5 -12.5q-4 -9 -14 -9zM775 159q-10 0 -14 9q-3 6 -1 12.5t8 9.5l98 46q3 2 4 5q2 10 -9 24q-1 1 -1 2q-76 125 -104 350
q-15 117 -13 199q0 16 -6.5 25.5t-12 12t-10.5 2.5h-70q-11 -18 -26 -33q-44 -42 -106 -42q-7 0 -11.5 4.5t-4.5 11.5t4.5 11.5t11.5 4.5q21 0 40 7t30 15.5t20.5 19.5t12.5 16t4 8q4 10 15 10h81h1q21 -1 40 -19t19 -54v0q0 -93 13 -195q27 -218 99 -337q19 -26 14 -49
q-3 -18 -19 -28h-2l-98 -46q-3 -2 -7 -2zM377 -126q-40 0 -78.5 10t-51.5 16.5t-21 11.5q-6 3 -7 10q-17 74 -2 166q11 72 41 153q32 90 73 159q25 45 36 89t11 71.5t-7 54.5t-10 33.5t-7 11.5q-4 6 -2.5 12.5t7 10.5t12 2.5t10.5 -6.5q20 -30 27 -82q13 -101 -48 -213
l-1 -1q-2 -3 -11 -19.5t-27.5 -55.5t-32.5 -79q-63 -171 -39 -293q57 -29 128 -29q69 4 91 17q1 1 2 1q106 47 160 48q85 6 147 -23q18 119 -41 280q-15 39 -33 78t-27 55.5t-11 19.5q-1 0 -1 1q-61 112 -48 213q3 23 10 43.5t11 28t6 10.5q9 13 22.5 4t4.5 -23
q-18 -34 -22 -69q-10 -90 45 -191q40 -69 73 -159q30 -81 41 -153q14 -92 -2 -166q-2 -8 -9.5 -11.5t-15.5 1.5q-24 16 -62.5 23t-59 5.5t-26.5 -0.5h-1.5h-0.5q-47 0 -146 -44q-30 -18 -106 -22h-1z" />
    <glyph glyph-name="nanshangyi" unicode="&#xe682;" 
d="M734 -82h-449q-37 0 -37 53l12 547l-80 -71q-14 -15 -36 -1q-8 5 -21 17l-89 77q-37 38 -16 59l117 117q7 8 19 19t37 30.5t62 32t76 12.5h69v-32h-69q-29 0 -57.5 -9t-46.5 -19t-36 -25.5t-21.5 -19.5t-8.5 -9q0 -1 -1 -2l-116 -115q3 -5 14 -15l89 -77q11 -12 16 -15
l105 94q7 7 16.5 3t9.5 -15l-12 -583q0 -18 2 -21h3h449h4q2 3 2 21l-13 583q0 11 9.5 15t17.5 -3l105 -94l119 106l-117 116q-1 1 -1 2q-5 5 -8.5 9t-22 19.5t-36 25.5t-46 19t-57.5 9h-66v32h66q40 0 76.5 -12.5t62 -32t37 -30t18.5 -19.5l118 -117q12 -12 12 -21t-12 -21
l-123 -110q-11 -11 -20 -11t-21 12l-78 70l11 -547q0 -10 -0.5 -16t-3.5 -16.5t-11.5 -15.5t-21.5 -5zM541 535q-8 0 -8 8v160q0 8 8 8t8 -8v-160q0 -8 -8 -8zM477.5 535q-7.5 0 -7.5 8v160q0 8 7.5 8t7.5 -8v-160q0 -8 -7.5 -8zM518 662q0 -10 -10 -10t-10 10t10 10t10 -10
zM518 631q0 -10 -10 -10t-10 10q0 4 3 7t7 3q10 0 10 -10zM518 599q0 -10 -10 -10t-10 10q0 4 3 7t7 3q10 0 10 -10zM518 567q0 -10 -10 -10t-10 10t10 10t10 -10zM175 481l-123 111l11 12l122 -111zM962 604l11 -12l-128 -116l-11 12zM512 804h-16h-15t-13 0.5t-10.5 1
t-8 0.5h-5.5h-2l2 16q2 0 19 -1t50 -1t61 2l1 -16q-29 -2 -63 -2zM510 832q-9 0 -18.5 0.5t-17 0.5t-14.5 0.5t-12.5 1t-9.5 0.5t-6 0.5l-2 0.5l2 15q4 0 22 -1.5t57 -1.5t75 3l1 -15q-37 -4 -77 -4zM455 683q-2 0 -3 1q-2 0 -5.5 2.5t-12 11.5t-16 21.5t-16.5 35t-14 51.5
q-1 4 2 7l35 36q3 3 7.5 2t5.5 -6q23 -78 74 -113q4 -2 4 -6.5t-4 -6.5l-53 -35q-1 -1 -4 -1zM404 805q17 -79 51 -105l39 26q-46 36 -67 102zM561 683q-2 0 -4 1l-53 35q-3 2 -3.5 6.5t3.5 6.5q52 35 74 113q1 5 5.5 6t8.5 -2l35 -36q3 -3 2 -7q-6 -29 -14.5 -51.5
t-16.5 -35t-16 -21.5t-11.5 -11.5t-5.5 -2.5q-2 -1 -4 -1zM522 726l40 -26q33 26 51 105l-23 23q-22 -66 -68 -102v0z" />
    <glyph glyph-name="nantong" unicode="&#xe683;" horiz-adv-x="1233" 
d="M9 859l3 3q6 11 17 11h3h1180q8 0 12 -2q8 -6 8 -14v-235q0 -7 -4.5 -11.5t-11.5 -5.5h-5h-179q-18 0 -33 -10t-21 -26q-4 -10 -4 -20v-19v-17v-616q0 -5 -1 -10q-2 -15 -18 -15h-3h-667q-6 0 -8 1q-14 3 -14 19v67v585q0 13 -3 21q-12 34 -47 39q-4 1 -11 1h-170
q-16 0 -21 13l-1 2q-1 119 -1 239zM805 835q-9 -75 -63 -123q-55 -49 -130 -47q-63 1 -112 40q-62 49 -71 130h-380v-191h6h150q8 0 14 -1q58 -10 78 -66q5 -13 5 -35v-559v-1v-1.5v-2v-1.5h633v5v567q0 4 1 11q5 37 32 60q29 25 63 24h2h157h4q1 8 0.5 98t-0.5 93h-389z
M468 835q6 -45 35 -79q41 -48 101 -52q66 -5 111 35.5t50 95.5h-297zM935 -62h-633v-27h633v27z" />
    <glyph glyph-name="nvshangyi" unicode="&#xe684;" 
d="M854 529l42 -592l-128 -65h-379l43 43h315l106 54l-42 560l107 194q-77 90 -107 108q-13 7 -35 13q0 -3 -4 -32t-7.5 -45.5t-13.5 -42t-23 -42.5q-24 -29 -83.5 -39t-88.5 5q-1 0 -9 4t-10.5 5t-9.5 5t-10.5 6.5t-8 6.5t-7.5 8q-1 -2 -4.5 -8t-4.5 -7.5t-4.5 -5.5
t-5.5 -5.5t-5.5 -4t-7.5 -4.5q-29 -15 -88.5 -5t-83.5 39q-26 33 -45 81.5t-25 81.5q-17 -6 -34 -14q-22 -12 -48.5 -38.5t-43 -48t-15.5 -21.5l128 -173l-43 -592l53 55l22 -22l-70 -91l-48 37l43 592l-128 194q8 14 22 35t48 62.5t58 53.5q43 21 128 21q1 -4 4 -10
q151 -31 199 -31q47 0 199 31l3 10q96 -2 128 -21q15 -9 47 -46.5t56 -71.5l25 -33zM278 853h-8h-8h-6q7 -26 29.5 -75t42.5 -73q16 -18 58.5 -25t61.5 3q35 17 43 27q-82 16 -129 47.5t-84 95.5zM501.5 810q-34.5 0 -174.5 25q19 -31 73.5 -60.5t101 -29.5t101 29.5
t73.5 60.5q-140 -25 -174.5 -25zM726 853q-28 -55 -73.5 -90.5t-119.5 -52.5q8 -11 44 -27q19 -10 60.5 -2t56.5 24q8 10 16 25t14 34.5t9.5 33t8 33.5t5.5 22q-2 1 -5 1t-8 -0.5t-8 -0.5z" />
    <glyph glyph-name="nvtong" unicode="&#xe685;" 
d="M878 -69q-28 -2 -87.5 11.5t-89.5 11.5q-20 -1 -40 -12t-34 -23t-36 -22t-46 -11q-55 -1 -120.5 13.5t-78.5 31.5q-2 3 -2.5 8t1 11t5.5 10t14.5 2.5t25.5 -8.5l6.5 -2.5t19 -6t28.5 -7t37 -5.5t42 -2q32 1 56.5 15t49 30.5t49.5 22.5q36 8 95.5 -8t82.5 -14q13 0 25.5 7
t19 13.5t14 15t8.5 9.5q-4 52 -28.5 105.5t-57.5 93t-55.5 61.5t-36.5 33q-1 1 -17 11.5t-29 20t-30.5 28t-29.5 38.5q-23 -12 -64 -21.5t-74 -8.5q-66 0 -129 29q-8 -17 -22.5 -33.5t-28 -28.5t-42.5 -35q-21 -17 -49 -47.5t-57.5 -70.5t-50 -87t-21.5 -86
q2 -12 19.5 -22.5t47.5 -2.5q22 -6 20.5 -24t-20.5 -21q-44 -7 -77.5 10t-33.5 35q0 25 4 50.5t10 47t17 44.5t19.5 39.5t23 37t23 32t24.5 29t22 23.5t20 20.5t14 15.5q10 9 34.5 29.5t38 34t26 39t12.5 54.5q0 28 -22 94t-44 136t-22 109l155 45q2 -3 8 -14t8 -14.5
t7.5 -13t9 -13.5t9 -11t10 -10t11 -7t13 -5.5t13.5 -1.5q9 0 17 2t16 8.5t13 10.5t13 15.5t11.5 16t12.5 19t11 18.5q150 -44 150 -45q0 -47 -22 -118t-44.5 -133t-22.5 -88q0 -22 9 -42t25.5 -37t31 -28.5t36.5 -27t31 -22.5q19 -15 37.5 -33t45.5 -51.5t46.5 -69t34 -85
t14.5 -100.5q0 -18 -29.5 -41.5t-59.5 -26.5v0zM701 811q0 2 -20 7t-44 10.5t-25 5.5q-10 -21 -18 -34t-21 -28t-31 -21.5t-41 -6.5q-24 0 -42.5 7t-31.5 23t-20 27.5t-17 32.5q-2 3 -45 -9t-44 -14q0 -26 44.5 -155t44.5 -138q0 -39 -5 -66q1 0 2.5 -0.5t2.5 -1.5
q43 -20 111 -22q66 -2 111 22q4 3 10 4q-10 31 -10 64q0 8 44.5 137t44.5 156v0z" />
    <glyph glyph-name="qipao" unicode="&#xe686;" 
d="M784 351v1q-1 1 -1 2v1v1l-64 148l64 189q3 10 -1 20q-5 9 -16 12q-47 12 -77.5 50t-31.5 86v0v2v1v2v13q-2 5 -5 9q-7 8 -18 8h-241q-11 0 -18 -8q-3 -4 -5 -8v-16q0 -48 -29.5 -86.5t-75.5 -51.5q-10 -2 -15 -11.5t-2 -19.5l62 -212l-63 -584q-1 -11 6 -19q8 -8 19 -8
h248h130q18 0 24 19l111 450v1v1v3v1q-1 3 -1 4zM638 -93h-95q-1 4 -2 10t-1 9v10v12v2q0 1 0.5 4t0.5 5v5v3.5v4.5q0 1 0.5 3t0.5 3q0 3 1 7v3.5t1 3.5q0 2 1 6q0 2 0.5 5.5t0.5 4.5t0.5 2l0.5 1q14 83 66.5 161t124.5 128zM524 84v-0.5v-0.5q-1 -3 -4 -13q0 -1 -0.5 -2
t-0.5 -2q-2 -7 -3 -11q0 -1 -0.5 -2.5t-0.5 -3.5q-1 -1 -1.5 -4t-0.5 -5q-1 -1 -1.5 -3.5t-0.5 -3.5l-2 -8q0 -1 -0.5 -4t-0.5 -4t-0.5 -3.5t-0.5 -3.5t-0.5 -4.5t-1.5 -5.5v-2v-3q0 -2 -0.5 -5.5t-1.5 -5.5v-3q-2 -20 -2 -45v-11q0 -6 1 -19h-218l61 577q0 4 -1 9l-57 194
q52 22 84 69.5t34 104.5h218q1 -58 34 -106t87 -69l-60 -174q-3 -8 0 -18l59 -141q-171 -116 -219 -268z" />
    <glyph glyph-name="tangzhuangzhuanhuan-copy" unicode="&#xe687;" 
d="M840 -48h-49v-48q0 -4 -0.5 -6t-4 -6t-10.5 -6.5t-22 -4.5t-36 -2h-438q-29 0 -38.5 4.5t-9.5 20.5v48h-49q-12 0 -18 9.5t-6 39.5q0 44 48 652q2 22 15.5 42.5t34 36t37.5 25t35 17.5q9 5 24.5 10.5t27 10t22.5 9.5t17 10t6 9v49q0 24 98 24q73 0 97 -3.5t24 -20.5v-49
q0 -11 33 -35.5t65 -37.5q91 -32 97 -97q3 -32 13 -336.5t11 -315.5q1 -16 0.5 -27t-6 -16.5t-18.5 -5.5zM288 123h41q18 0 33.5 10.5t15.5 37.5v265q0 28 -18.5 64.5t-54.5 57.5q-25 15 -34 22q34 -78 34 -119v-171q0 -26 -8 -88.5t-9 -78.5zM207 25q0 -12 6.5 -17t18.5 -7
v49q0 34 12 121.5t12 118.5v171q0 26 -12 58q-5 -76 -14.5 -198.5t-16 -205.5t-6.5 -90v0zM329 726q-70 -40 -73 -73v-10q63 -28 97 -63q43 -40 58 -67t15 -79v-265q0 -37 -20.5 -67.5t-52.5 -30.5h-73v-24v-73v0v-24q0 -11 7.5 -17.5t17.5 -6.5h194v170h-36q-12 0 -12 12
v24q0 12 12 12h36v122h-36q-12 0 -12 12v25q0 12 12 12h36v97h-36q-12 0 -12 12v24q0 13 12 13h36v121h-36q-12 0 -12 12v25q0 12 12 12h36v121h-24l-24 25q-94 -35 -122 -51zM524 847q-32 0 -40.5 -5.5t-8.5 -18.5l49 -24h24l49 24q0 7 -1.5 11.5t-5.5 7t-8 4t-11.5 2
t-13 0.5t-16 -0.5t-17.5 -0.5zM743 701q-28 14 -67 38t-55 35l-24 -24h-49v-122h36q13 0 13 -12v-24q0 -12 -13 -12h-36v-122h36q13 0 13 -12v-24q0 -12 -13 -12h-36v-98h36q13 0 13 -12v-24q0 -12 -13 -12h-36v-122h36q13 0 13 -12v-25q0 -12 -13 -12h-36v-170h170
q6 0 10.5 1t7 4t4.5 5.5t2.5 8t0.5 8.5v10.5v11.5v73v24h-49q-32 0 -52.5 29.5t-20.5 67.5v265q0 52 15.5 79t57.5 67q32 30 90 59q7 14 7 17q-1 3 -3.5 8.5t-15 18.5t-29.5 21zM743 555q-37 -21 -55 -57.5t-18 -63.5v-265q0 -26 15.5 -37.5t32.5 -11.5h17q-17 131 -17 170
v171q0 46 25 94zM816 25q0 27 -22 538q-27 -64 -27 -102v-171q0 -19 3 -46t8.5 -66t7.5 -58h5v-49v0v-24v-49h25v27z" />
    <glyph glyph-name="wodecaifuzhuanhuan-copy" unicode="&#xe689;" 
d="M536 82h-24l-378 534v24l378 256h24l354 -256v-24zM536 850h-24l-307 -210l307 -117h24l283 117zM536 477h-24l-307 117l307 -442h24l283 442zM300 45v37h29q17 -30 71.5 -50.5t123.5 -20.5t123 19.5t72 51.5h29v-37q-30 -36 -90.5 -58t-133.5 -22t-133.5 22t-90.5 58z
M524.5 -82q80.5 0 148.5 19.5t107 51.5h39v-24q-44 -43 -123 -68t-172 -25q-94 0 -172 25t-123 68v24h39q40 -32 108 -51.5t148.5 -19.5z" />
    <glyph glyph-name="taozhuang" unicode="&#xe68a;" 
d="M787 896h-550q-10 0 -17.5 -7.5t-7.5 -17.5v-974q0 -11 7.5 -18t17.5 -7h237q10 0 17 6.5t8 16.5l13 245l13 -245q1 -10 8 -16.5t17 -6.5h237q10 0 17.5 7t7.5 18v974q0 10 -7.5 17.5t-17.5 7.5zM770 409h-246v182l105 88q4 5 4 10v84l52 37q5 4 5 10t-5 10l-42 30l126 1
v-452h1zM411 789l-43 31l46 31l72 -217l-70 60v85q0 7 -5 10zM438 857l149 2l-75 -224zM611 852l46 -32l-43 -30q-5 -5 -5 -11v-84l-71 -61zM376 856l-37 -26q-5 -3 -5 -10q0 -6 5 -11l52 -37v-84q0 -6 4 -9l105 -89v-182h-250l4 446zM572 -86l-35 340q-1 10 -8 16.5
t-17 6.5t-17 -6.5t-8 -16.5l-35 -340h-198l-3 453h519v-453h-198z" />
    <glyph glyph-name="shanchu1" unicode="&#xe68c;" 
d="M555 384l305 305q9 8 0 17l-26 26q-9 9 -17 0l-305 -305l-305 305q-8 9 -17 0l-26 -26q-9 -9 0 -17l305 -305l-305 -305q-9 -8 0 -17l26 -26q9 -9 17 0l305 305l305 -305q8 -9 17 0l26 26q9 9 0 17z" />
    <glyph glyph-name="shanchu2" unicode="&#xe68d;" 
d="M789.5 594q-9.5 0 -17 -7t-7.5 -17v-28v-92v-386q0 -20 -14 -34t-34 -14h-409q-20 0 -34 14t-14 34v386v92v29q0 10 -7 17t-17 7t-17.5 -7t-7.5 -17v-96v-24v-44v-366q0 -30 21.5 -51t51.5 -21h457q30 0 51.5 21t21.5 51v410v24v95q0 10 -7.5 17t-17 7zM452 137v409
q0 10 -7 17t-17 7t-17 -7t-7 -17v-409q0 -10 7 -17t17 -7t17 7t7 17zM380 763h265q10 0 17 7t7 17t-7 17t-17 7h-265q-10 0 -17 -7t-7 -17t7 -17t17 -7zM886 715h-747q-10 0 -17 -7t-7 -17t7 -17t17 -7h747q10 0 17 7t7 17t-7 17t-17 7zM621 137v409q0 10 -7 17t-17 7
t-17 -7t-7 -17v-409q0 -10 7 -17t17 -7t17 7t7 17z" />
    <glyph glyph-name="shanchu3" unicode="&#xe68f;" 
d="M982 584q-40 93 -109 162q-71 71 -164 110q-94 40 -199 40t-199 -40q-93 -40 -162 -109t-109 -163q-40 -97 -40 -201t40 -200q40 -93 109 -162.5t162 -108.5q97 -40 201 -40q100 0 200 40q93 39 162 108.5t109 162.5q40 96 40 200q0 100 -41 201zM937 202
q-35 -84 -100 -149t-148 -99q-86 -37 -181 -37t-182 37q-77 31 -149 99q-65 65 -99 149q-37 93 -37 181q0 95 37 182q34 83 99 148t149 100q90 38 181 38q95 0 182 -37q83 -35 148 -100t100 -148q37 -94 37 -182q1 -95 -37 -182zM754 596l-35 31l-209 -211l-217 217l-32 -33
l216 -217l-212 -211l33 -33l212 212l216 -216l32 33l-216 215z" />
    <glyph glyph-name="shanchu4" unicode="&#xe690;" 
d="M980 582q-39 89 -108 162q-65 66 -162 109q-97 41 -197.5 41t-197.5 -41q-89 -39 -162 -108q-67 -66 -110 -163q-41 -97 -41 -197.5t41 -197.5q39 -89 108 -162q69 -68 162 -108q97 -42 197.5 -42t197.5 42q89 39 162 108q68 68 108 162q42 97 42 197q2 99 -40 198z
M739 126l-225 224l-220 -219l-33 33l220 220l-226 225l34 33l224 -224l221 220l34 -33l-220 -221l224 -224z" />
    <glyph glyph-name="banshenqun" unicode="&#xe691;" 
d="M924 896h-797l-120 -792l132 -130h161l78 -99l152 33l171 -22l68 80l143 20l106 71zM971 78l-58 -45l-83 731h65zM885 854l7 -63h-358h-27h-352l10 63h720zM299 19h-132l88 744l-8 1h71zM344 764h74q0 -1 -9.5 -186.5t-20 -390.5t-12.5 -241l-51 65zM442 764h65v-816h5
l-111 -22l43 838h-2zM534 764h71h-7l77 -830l-141 16v814zM624 764h86l32 -763l-43 -49zM152 764h77q0 -1 -20 -168.5t-41.5 -350.5t-25.5 -215l-89 87zM768 9l-32 755h77l-9 -1l84 -740z" />
    <glyph glyph-name="quanbu" unicode="&#xe692;" 
d="M980 -57h-939v80h-41v-129h15v0h992v0h17v127h-44v-78zM963 476l-408 154v32q31 7 51 32.5t20 57.5q1 39 -27 67t-68 28t-67.5 -27.5t-27.5 -67.5h49q0 18 14 32t32 14t32.5 -14t14.5 -32q0 -17 -10 -28.5t-27 -15.5h-35v-78l-445 -154q-24 -7 -42.5 -30t-18.5 -52v-129
h1024v124q0 33 -16 55.5t-45 31.5zM975 359v-46h-928v56v2q0 48 35 62l452 163l409 -163q32 -13 32 -74zM980 131h-939v80h-41v-129h20v0h991v0h13v129h-44v-80z" />
    <glyph glyph-name="xianshi" unicode="&#xe693;" 
d="M511.5 889q-102.5 0 -196 -40t-161 -107.5t-107.5 -161t-40 -196t40 -196t107.5 -161.5t161.5 -108t196.5 -40t196.5 40t161.5 107.5t107.5 161t40 196.5t-40.5 196.5t-108 161t-161.5 107.5t-196.5 40zM511.5 151q-104.5 0 -209 72t-158.5 161q53 89 158 160.5t210 71.5
q104 0 208.5 -72t158.5 -160q-54 -89 -158.5 -161t-209 -72zM636 464q0 -21 -14 -35t-33.5 -14t-34 14.5t-14.5 34.5q0 21 14 35.5t34 14.5q2 0 5 -0.5t5 -0.5q-37 28 -86 28q-61 0 -104.5 -46t-43.5 -110.5t43 -110.5t104.5 -46t105 46t43.5 110q0 50 -28 91q4 -7 4 -11v0z
" />
    <glyph glyph-name="yincang" unicode="&#xe694;" 
d="M511.5 880q-100.5 0 -192.5 -39.5t-158 -105.5t-105.5 -158t-39.5 -192.5t39.5 -192.5t106 -158.5t158.5 -106t192.5 -39.5t192.5 39.5t158.5 106t106 158.5t39.5 192.5t-39.5 192.5t-106.5 158t-159 105.5t-192.5 39.5zM696 212l92 -109l-45 -38l-102 121
q-68 -29 -129 -29q-103 0 -206 70t-155 157q28 47 75 93t102 79l-92 110l45 37l102 -120q69 29 129 29q103 0 206 -70.5t155 -157.5q-29 -46 -75.5 -92t-101.5 -80zM634 463q0 -21 -14 -35t-33.5 -14t-33.5 14t-14 34.5t14 35t33 14.5q3 0 5.5 -1t4.5 -1q-36 27 -84 27
q-39 0 -74 -20l190 -224q29 42 29 92t-28 89q5 -9 5 -11zM366 384q0 -63 43 -108t103 -45q39 0 72 21l-189 224q-29 -40 -29 -92z" />
    <glyph glyph-name="shouquanzhengpin" unicode="&#xe698;" 
d="M920 770l-376 120q-32 10 -64 0l-376 -120q-24 -8 -38.5 -28t-14.5 -45v-264q0 -114 52.5 -217t146.5 -171l216 -158q21 -15 46 -15q26 0 46 15l217 158q93 68 145.5 171t52.5 217v264q0 25 -15 45t-38 28zM120 722l376 120q8 2 16.5 2t15.5 -2l376 -120q18 -6 18 -25
v-13h-819v13q-1 19 17 25zM922 433v0q0 -102 -47.5 -194.5t-130.5 -152.5l-217 -158q-15 -11 -30 0l-217 158q-83 60 -130.5 152.5t-47.5 194.5v199h820v-199v0zM808 559l-367 -337l-154 199q-6 8 -16.5 9.5t-19 -5t-10 -17t5.5 -18.5l171 -220q7 -9 18 -10h2q10 0 17 6
l387 356q8 7 8.5 17.5t-6.5 18.5t-17.5 8t-18.5 -7z" />
    <glyph glyph-name="wuyoushouhou" unicode="&#xe699;" 
d="M506 -123l-12 6q-2 1 -3 1l-0.5 0.5l-0.5 0.5q-185 82 -300 237q-92 124 -135 289q-22 83 -29 172t-5.5 121t3.5 53l3 26l27 -1q17 -1 34 -1q76 0 146.5 11.5t121 29.5t79 31t49.5 26q5 3 6 4l16 10l15 -10q1 -1 6 -4h1q20 -13 48.5 -26t79 -31t121 -29.5t146.5 -11.5
q18 0 35 1l26 1l3 -26q2 -22 3.5 -53.5t-5.5 -121t-29 -171.5q-42 -165 -134 -289q-115 -155 -301 -238h-0.5h-0.5l-1 -0.5l-1 -0.5zM72 732q-8 -159 31 -308q45 -172 148 -297t255 -194q152 69 255 194.5t148 297.5q39 150 31 307h-9q-180 0 -289 35q-19 6 -36 13
t-33.5 15.5t-26 13.5t-24 14t-16.5 10q-60 -34 -136 -59q-132 -42 -289 -42h-9zM229 425q74 110 114 267l41 -12q-23 -73 -49 -136v-388h-39v305q-24 -44 -50 -81q-7 23 -17 45zM422 668h306v-207h-41v21h-93v-75h182v-37h-150q51 -84 154 -132q-17 -24 -27 -41
q-104 63 -159 169v-212h-40v214q-66 -119 -166 -182q-12 15 -31 33q98 54 159 151h-144v37h182v74h-90v-24h-42v211v0zM687 631h-223v-113h223v113v0z" />
    <glyph glyph-name="xiaolianchenggong" unicode="&#xe69a;" horiz-adv-x="1025" 
d="M512 896q-104 0 -199 -40.5t-163.5 -109t-109 -163.5t-40.5 -199t40.5 -199t109 -163.5t163.5 -109t199 -40.5t199 40.5t163.5 109t109 163.5t40.5 199t-40.5 199t-109 163.5t-163.5 109t-199 40.5v0zM512 -85q-95 0 -182 37t-150 100t-100 150t-37 182t37 182t100 150
t150 100t182 37t182 -37t150 -100t100 -150t37 -182t-37 -182t-100 -150t-150 -100t-182 -37v0zM512 -85zM755 267q-8 3 -16 -0.5t-11 -12.5q-24 -68 -83.5 -110t-132.5 -42t-132.5 42.5t-83.5 110.5q-3 8 -11 12t-16.5 1t-12 -11t-0.5 -16q28 -81 99 -131t157 -50
t156.5 49.5t99.5 130.5q3 8 -0.5 16t-12.5 11v0zM755 267zM314 558q32 0 55 -27.5t23 -66.5q0 -9 6 -15.5t15 -6.5t15 6.5t6 15.5q0 56 -35 96t-85 40t-85 -40t-35 -96q0 -9 6 -15.5t15 -6.5t15 6.5t6 15.5q0 39 23 66.5t55 27.5v0zM314 558zM710 600q-50 0 -85 -40t-35 -96
q0 -9 6 -15.5t15 -6.5t15 6.5t6 15.5q0 39 23 66.5t55 27.5t55 -27.5t23 -66.5q0 -9 6 -15.5t15 -6.5t15.5 6.5t6.5 15.5q0 56 -35.5 96t-85.5 40v0zM710 600z" />
    <glyph glyph-name="zhanghuanquan" unicode="&#xe69b;" 
d="M896 -128h-768q-26 0 -45 19t-19 45v544q0 26 19 45t45 19h96v64q0 139 74.5 213.5t213.5 74.5v0q139 0 213.5 -74.5t74.5 -213.5v-64h96q26 0 45 -19t19 -45v-544q0 -26 -19 -45t-45 -19zM736 608q0 224 -224 224v0q-224 0 -224 -224v-64h448v64zM896 448q0 14 -9 23
t-23 9h-704q-14 0 -23 -9t-9 -23v-480q0 -14 9 -23t23 -9h704q14 0 23 9t9 23v480zM544 131v-115q0 -16 -16 -16h-32q-16 0 -16 16v115q-53 12 -74.5 43t-21.5 82q0 53 37.5 90.5t90.5 37.5t90.5 -37.5t37.5 -90.5q0 -51 -21.5 -82t-74.5 -43zM512 320q-26 0 -45 -19
t-19 -45t19 -45t45 -19t45 19t19 45t-19 45t-45 19z" />
    <glyph glyph-name="chongzhi" unicode="&#xe69c;" horiz-adv-x="1025" 
d="M458 -128q-42 7 -44 8q-95 19 -176 71l-4 3q13 17 34 42q173 -106 364 -57q165 43 263 187q63 92 76 201t-25.5 213t-121.5 180q-81 75 -186.5 104t-211.5 7.5t-192 -88.5q-146 -115 -172 -299q-24 -181 86 -335q-25 -23 -41 -36q-20 28 -21 30q-75 117 -81 249
q-12 243 166 408q108 101 258 127q1 0 56 6l8 1h46l8 -1q124 -7 227 -69q189 -113 241 -328q0 -1 9 -44v-139q-2 -6 -2 -7q-8 -55 -26 -103q-49 -128 -153 -215q-100 -83 -228 -109q-2 0 -43 -7h-114zM525 503l1 1l1 1l1 1l1 2l1 1l1 1l1 1l1 1l1 1l1 1l1 1l1 1l1 1l1 1l1 1
l1 1l1 1l1 1l1 1l1 1l1 1l1 1l1 1l1 1l1 1l1 1l1 1l1 1l1 1l1 1l1 1l1 1l1 1l1 1l1 1l1 1l1 1l1 1l1 1l1 1l1 1l1 1l1 1l1 1l1 1l1 1l1 1l1 1l1 1l1 1l1 1l1 1l1 1l1 1l1 1l1 1l1 1l1 1l1 1l2 1l1 1l1 1l1 1l1 1l1 1l1 1l1 1l1 1l1 1l1 1l1 1l1 1l1 1l1 1l1 1l1 1l1 1l1 1
l1 1l1 1l1 1l1 1l1 1l1 1l1 1l1 1l1 1l1 1l1 1l1 1l1 1l1 1l1 1l1 1l1 1l1 1l1 1l1 1l1 1l1 1l1 1l1 1l1 1l1 1l1 1l1 1l1 1l1 1l1 1l1 1l1 1l1 1l1 1l1 1l1 1l1 1l1 1l1 1l1 1l1 1l1 1l1 1l1 1l1 1l1 1l1 1l1 1l1 1l1 1l1 1l1 1l1 1l1 1l1 1l1 1l1 1l1 1l1 1l1 1l1 1l1 1
l1 1l1 2l40 -40l-1 -1l-1 -1l-1 -1l-1 -1l-1 -1l-1 -1l-1 -1l-1 -1l-1 -1l-1 -1l-1 -1l-1 -1l-1 -1l-1 -1l-1 -1l-1 -1l-1 -1l-1 -1l-1 -1l-1 -1l-1 -1l-1 -1l-1 -1l-1 -1l-1 -1l-1 -1l-1 -1l-1 -1l-1 -1l-1 -1l-1 -1l-2 -1l-1 -1l-1 -1l-1 -1l-1 -1l-1 -1l-1 -1l-1 -1
l-1 -1l-1 -1l-1 -1l-1 -1l-1 -1l-1 -1l-1 -1l-1 -1l-1 -1l-1 -1l-1 -1l-1 -1l-1 -1l-1 -1l-1 -1l-1 -1l-1 -1l-1 -1l-1 -1l-1 -1l-1 -1v-1l-1 -1l-1 -1l-1 -1l-1 -1l-1 -1l-1 -1l-1 -1l-1 -1l-1 -1l-1 -1l-1 -1l-1 -1l-1 -1l-1 -1l-1 -1l-1 -1l-1 -1l-1 -1l-1 -1l-1 -1
l-1 -1l-1 -1l-1 -1l-1 -1l-1 -1l-1 -1l-1 -1l-1 -1l-1 -1l-1 -1l-1 -1l-1 -1l-1 -1l-1 -1l-1 -1h-1l-1 -1l-1 -1l-1 -1l-1 -1l-1 -1l-1 -1l-1 -1l-1 -1l-1 -1l-1 -1l-1 -1l-1 -1l-1 -1l-1 -1l-1 -1l-1 -1l-1 -1l-1 -1l-2 -2h161v-55h-200v-110h200v-54h-201v-183h-54v182
h-201v54h200v111h-200v54h160q-54 57 -117 117q1 2 40 40l1 -1l1 -1l1 -1l1 -1l1 -1l1 -1l1 -1l1 -1l1 -1l1 -1l1 -1l1 -1l1 -1l1 -1l1 -1l1 -1l1 -1l1 -1l1 -1l1 -1l1 -1l1 -1l1 -1l1 -1l1 -1h1l1 -1l1 -1l1 -1l1 -1l1 -1l1 -1l1 -1l1 -1l1 -1l1 -1l1 -1l1 -1l1 -1l1 -1
l1 -1l1 -1l1 -1l1 -1l1 -1l1 -1l1 -1l1 -1l1 -1l1 -1l1 -1l1 -1l1 -1l1 -1l1 -1l1 -1l1 -1l1 -1l1 -1l1 -1l1 -1l1 -1l1 -1l1 -1l1 -1l1 -1l1 -1l1 -1l1 -1l1 -1l1 -1l1 -1l1 -1l1 -1l1 -1l1 -1l1 -1l1 -1l1 -1l1 -1l1 -1l1 -1l1 -1l1 -1l1 -1l1 -1l1 -1l1 -1l1 -1l1 -1
l1 -1l1 -1l1 -1l1 -1l1 -1l1 -1l1 -1l1 -1l1 -1l1 -1l1 -1l1 -1l1 -1l1 -1l1 -1l1 -1l1 -1l1 -1l1 -1l1 -1l1 -1l1 -1l1 -1l1 -1l1 -1l1 -1l1 -1l1 -1l1 -1l1 -1l1 -1l1 -1l1 -1l1 -1l1 -1l1 -1l1 -1l1 -1l1 -1l1 -1l1 -1l1 -1l1 -1l1 -1l1 -1l1 -1l1 -1l1 -1l1 -1l1 -1
l1 -1l1 -1l1 -1l1 -1z" />
    <glyph glyph-name="zhuanzhang" unicode="&#xe69e;" 
d="M895 847q33 0 56.5 -23.5t23.5 -56.5v-766q0 -33 -23.5 -56.5t-56.5 -23.5h-766q-33 0 -56.5 23.5t-23.5 56.5v766q0 33 23.5 56.5t56.5 23.5h766zM895 896h-766q-53 0 -91 -38t-38 -91v-766q0 -53 38 -91t91 -38h766q53 0 91 38t38 91v766q-2 53 -40 91t-89 38v0z
M748 511h-397l90 90q6 5 6 11.5t-6 10.5l-22 22q-1 5 -9.5 5t-12.5 -5l-134 -134q-5 -5 -5 -10q-2 -2 -2 -7v-32q0 -7 5 -12t12 -5h480q8 0 12.5 5t4.5 12v32q-6 17 -22 17zM753 384h-480q-7 0 -12 -4t-5 -8v-32q0 -6 1 -9.5t8.5 -6.5t22.5 -3h375l-80 -78q-6 -6 -6 -12.5
t6 -9.5l22 -22q5 -6 11.5 -6t10.5 6l131 124q10 5 10 15v31q-2 6 -6.5 10.5t-8.5 4.5z" />
    <glyph glyph-name="wancheng" unicode="&#xe6a3;" 
d="M512.5 890q-102.5 0 -196 -40t-161 -107.5t-107.5 -161t-40 -196t40 -196t107.5 -161t161 -107.5t196 -40t195.5 40t161 107.5t108 161t40 196t-40 196t-108 161t-161 107.5t-195.5 40zM794 482l-328 -336q-12 -13 -29 -13h-1q-17 0 -29 13l-177 176q-12 12 -12 29.5
t12.5 30t29.5 12.5t30 -13l146 -146l298 306q13 12 30 12.5t29.5 -12t13 -29.5t-12.5 -30z" />
    <glyph glyph-name="huidaodingbu" unicode="&#xe6a4;" 
d="M512 896q-104 0 -199 -40.5t-163.5 -109t-109 -163.5t-40.5 -199q0 -139 68.5 -257t186.5 -186.5t257 -68.5t257 68.5t186.5 186.5t68.5 257q0 104 -40.5 199t-109 163.5t-163.5 109t-199 40.5zM743 291q-13 0 -22 9l-178 179v-415q0 -13 -9.5 -22t-22 -9t-22 9t-9.5 22
v0v414l-177 -177q-9 -10 -22 -10t-22.5 9t-9.5 22t9 23l231 230q10 10 23 10t22 -9l232 -231v0q9 -10 9 -23t-9.5 -22t-22.5 -9zM773 614h-522q-13 0 -22 9t-9 22t9 22.5t22 9.5h522q13 0 22 -9.5t9 -22.5t-9 -22t-22 -9z" />
    <glyph glyph-name="xiangyou" unicode="&#xe6af;" 
d="M75 -45l433 438q1 0 1.5 1l0.5 1v0v0q12 12 12 28.5t-12 27.5l-437 434q-12 11 -28.5 11t-28 -11.5t-11.5 -28t12 -28.5l410 -405l-408 -412q-12 -11 -12 -27.5t12 -28.5q12 -11 28.5 -11t27.5 11v0z" />
    <glyph glyph-name="xiangzuo" unicode="&#xe6b0;" 
d="M452 884l-433 -437l-0.5 -1l-0.5 -1l-0.5 -0.5l-0.5 -0.5q-11 -11 -11 -27.5t11 -28.5l438 -433q11 -11 27.5 -11t28 11.5t11.5 28t-12 27.5l-409 406l408 411q11 12 11 28.5t-12 28.5q-11 11 -27.5 11t-28.5 -12v0z" />
    <glyph glyph-name="xiangshang" unicode="&#xe6b1;" 
d="M944 100l-408 405q-1 1 -1.5 1t-0.5 1h-0.5h-0.5q-11 11 -26 11t-26 -11l-405 -409q-11 -11 -11 -26t11 -26t26 -11q16 0 27 11l379 383l384 -381q11 -11 26 -11q16 0 26.5 11t10.5 26t-11 26v0zM944 100z" />
    <glyph glyph-name="xiangxia" unicode="&#xe6b2;" horiz-adv-x="1414" 
d="M271 560l409 -405l1 -0.5l1 -0.5v-0.5v-0.5q11 -10 26.5 -10t26.5 11l405 408q11 11 10.5 26.5t-11 26t-26 10.5t-26.5 -11l-379 -382l-385 381q-11 10 -26 10t-26 -11q-11 -10 -11 -25.5t11 -26.5v0z" />
    <glyph glyph-name="shaixuan" unicode="&#xe6b3;" 
d="M597 -60v1l-1 1q-10 9 -10 25v55v380q0 17 12 30q56 55 250 250q12 11 16 24q6 22 -7.5 41t-36.5 20h-5h-606q-37 0 -48 -32q-8 -24 8 -45q4 -6 11 -12q150 -151 238 -239q12 -12 12 -29v-259q0 -21 -16 -30q-15 -7 -29 1t-16 24v7v244q0 5 -3 8l-235 235q-33 33 -33 78
q0 38 22.5 67.5t58.5 38.5q14 4 30 4h606q64 0 97 -55q16 -27 14 -60.5t-21 -58.5q-7 -9 -15 -16q-130 -131 -240 -240q-3 -4 -3 -9v-414q0 -24 -12 -35h-38z" />
    <glyph glyph-name="bangdingshouji01" unicode="&#xe6b4;" horiz-adv-x="1049" 
d="M626 896h-569q-24 0 -40.5 -16.5t-16.5 -40.5v-910q0 -24 16.5 -40.5t40.5 -16.5h569q23 0 40 16.5t17 40.5v910q0 24 -17 40.5t-40 16.5zM626 -71h-569v171h569v-171zM626 157h-569v682h569v-682zM341 14zM304 14.5q0 15.5 11 26t26.5 10.5t26 -10.5t10.5 -26
t-10.5 -26.5t-26 -11t-26.5 11t-11 26.5z" />
    <glyph glyph-name="zhanghuanquan1" unicode="&#xe6b5;" horiz-adv-x="1095" 
d="M387.5 -128q-104.5 0 -194 52t-141.5 141.5t-52 193.5q0 98 44.5 180.5t121.5 138.5v110q0 86 61 147t147 61h27q85 0 146.5 -61t61.5 -147v-110q76 -53 121 -137t45 -181q0 -105 -52 -194.5t-141.5 -141.5t-194 -52zM554 688q0 63 -45 108t-108 45h-27q-63 0 -108 -45
t-45 -108v-80q78 39 166 39q89 0 166 -39v80h1zM387.5 592q-89.5 0 -166 -45t-121.5 -121.5t-45 -166t45 -166t121.5 -121.5t166 -45t166 45t121.5 121.5t45 166t-45 166t-121.5 121.5t-166 45zM415 66v-42q0 -14 -14 -14h-27q-14 0 -14 14v42h-83v55h83v114q-49 6 -80 34.5
t-31 73t31 73t80 34.5v45q0 13 14 13h27q14 0 14 -13v-42h83v-55h-83v-111q50 -2 80.5 -26t30.5 -85q0 -30 -9 -52t-26 -33.5t-34.5 -17t-41.5 -7.5zM304 342q0 -19 13.5 -33.5t42.5 -18.5v108q-26 0 -41 -16.5t-15 -39.5zM415 232v-108q55 7 55 53q0 12 -1 19.5t-6 15.5
t-17 13t-31 7z" />
    <glyph glyph-name="tupian" unicode="&#xe6b7;" 
d="M902 814h-780q-51 0 -86.5 -35t-35.5 -87v-616q0 -51 35.5 -86.5t86.5 -35.5h780q51 0 86.5 35t35.5 87v616q0 52 -35.5 87t-86.5 35zM122 765h780q31 0 52 -21t21 -52v-375q-49 22 -100 22q-63 0 -118.5 -30.5t-91.5 -83.5q-60 80 -150 127.5t-193 47.5
q-157 0 -276 -100v392q2 31 24 52t52 21zM49 78v161l3 -2q52 54 123 84t147 30q98 0 181.5 -46t135.5 -126t59 -175h-578q-29 1 -50 22.5t-21 51.5zM902 5h-154q-8 97 -52 173q26 51 74 81.5t104 30.5q51 0 100 -27v-185q1 -31 -20 -52t-52 -21zM751 464q42 0 72 30t30 72
t-30 72t-72 30t-72.5 -30t-30.5 -72t30.5 -72t72.5 -30zM751 619q22 0 37.5 -15.5t15.5 -37.5t-15.5 -37.5t-37.5 -15.5t-38 15.5t-16 37.5t16 37.5t38 15.5z" />
    <glyph glyph-name="xiugaidenglumima" unicode="&#xe6b9;" horiz-adv-x="1266" 
d="M442 314q-42 41 -100.5 41t-99.5 -41t-41 -100t41 -100t100 -41q58 0 99.5 41.5t41.5 99.5t-41 100zM396 160q-23 -23 -54 -23q-32 0 -54.5 22.5t-22.5 54.5t22.5 54.5t54.5 22.5t54 -23q23 -22 23 -54t-23 -54zM1031 609l-41 41q34 41 34 95q0 63 -44.5 107t-107 44
t-106.5 -44l-314 -314q-53 18 -110 18q-142 0 -242 -100.5t-100 -241.5q0 -142 100 -242t241.5 -100t241.5 100q74 74 94 177q17 89 -11 175l45 45l40 -41q26 -26 63 -26t63.5 26.5t26.5 63.5t-27 63l-40 40l28 28l40 -41q26 -26 63 -26t63 26q26 27 26 64t-26 63z
M988.5 524.5q-7.5 -7.5 -18.5 -7.5t-18 8l-64 64q-10 10 -23.5 10t-23.5 -10l-70 -70q-10 -9 -10 -22.5t10 -23.5l64 -64q7 -8 7 -18.5t-7 -18t-18 -7.5t-18 8l-64 64q-10 10 -23.5 10t-23.5 -10l-81 -80q-15 -15 -7 -36q33 -79 16 -163t-78 -145q-83 -83 -200 -83
q-118 0 -201 83t-83 200.5t83 200.5t200 83q57 0 109 -21q20 -9 35 7l337 336q26 26 63 26t62.5 -26t25.5 -63t-26 -63l-19 -21q-10 -10 -10 -23.5t10 -23.5l64 -64q8 -8 8 -18.5t-7.5 -18z" />
    <glyph glyph-name="caifuzhongxin" unicode="&#xe6ba;" horiz-adv-x="1414" 
d="M1074 641v0l-2 1q-2 2 -3 2l-342 242v0q-5 4 -12 4t-12 -4l-366 -243q-2 -1 -3 -2h-1v0q-5 -5 -5 -12t5 -11v0l370 -532h1q4 -6 11 -6t11 6h1l346 531q5 5 5 12q0 6 -4 12zM727 155l-12 -17l-11 17l-301 440l300 -116q7 -3 12 -3l11 3l278 116zM727 525q-6 -3 -12 -3
l-11 3l-301 116l300 199h1q5 4 12 4t12 -6l276 -197zM921 92q-9 0 -16 -6v0l-0.5 -0.5t-0.5 -1.5q-2 -2 -4 -6q-20 -27 -71 -44.5t-114 -17.5q-62 0 -112.5 17t-71.5 44q-2 5 -6 8v1v-1q-7 6 -15 6q-10 0 -17 -6.5t-7 -16.5q0 -11 9 -18v0q30 -36 89 -58t131 -22t131 22
t88 58q10 7 10 19q0 9 -6.5 16t-16.5 7zM1004 -31q5 7 5 15q0 10 -6.5 16.5t-16.5 6.5q-14 0 -21 -14v1q-38 -32 -104.5 -51t-145.5 -19q-81 0 -151 21t-102 54v0q-7 8 -18 8q-9 0 -16 -6.5t-7 -16.5q0 -8 5 -14v-1q44 -41 121 -66t168 -25q88 0 163.5 23.5t120.5 63.5
q3 2 5 4v0v0z" />
    <glyph glyph-name="chongzhi360" unicode="&#xe6bc;" 
d="M672 358q-9 22 -28 40q-17 15 -40 24t-59 18v125q38 -13 48 -50q8 -32 38 -32q15 0 26 11t11 26q0 13 -7 29q-8 17 -21 32q-18 20 -40 29q-22 10 -55 14v44q0 25 -19 25t-19 -25v-44q-61 -6 -94 -39t-33 -84q0 -39 17 -64.5t43.5 -39t66.5 -24.5v-139q-19 5 -32 16
q-12 11 -18 24t-14 37q-3 12 -12 18q-10 6 -23 6q-17 0 -28 -11.5t-11 -25.5q0 -20 8 -39q9 -21 26 -39q19 -20 43 -32q27 -12 61 -16v-56q0 -13 4 -20q5 -7 16 -7q12 0 15 8q3 9 3 26v49q44 4 74 23q31 19 47 48.5t16 63.5q1 27 -10 51zM507 452q-27 10 -40 22t-13 35
q0 25 14 37q14 13 39 20v-114zM592 256q-16 -19 -47 -24v131q30 -10 47 -24q16 -14 16 -41q1 -23 -16 -42zM527 848q-91 0 -174.5 -35.5t-143.5 -96t-96 -143.5t-36 -174.5t36 -174.5t96 -143.5t143.5 -96t174.5 -35.5t174.5 35.5t143.5 96t95.5 143.5t35.5 174.5
t-35.5 174.5t-95.5 143.5t-143.5 96t-174.5 35.5zM527 3q-107 0 -198.5 53t-144.5 144t-53 198.5t53 198.5t144.5 144t198.5 53t198.5 -53t144.5 -144t53 -199q0 -107 -53.5 -198.5t-144.5 -144t-198 -52.5z" />
    <glyph glyph-name="fenxiang3" unicode="&#xe6be;" horiz-adv-x="1252" 
d="M449 93l68 1l-2 11q-5 52 1 107q15 122 79 212q112 160 368 221l-128 -203l57 -36l196 309l-334 181l-32 -59l230 -125q-285 -65 -413 -249q-33 -47 -54.5 -101t-29.5 -94t-9.5 -81.5t-0.5 -56.5t3 -28v0zM968 -46q0 -8 -6.5 -13.5t-15.5 -5.5h-860q-9 0 -15.5 5.5
t-6.5 13.5v663q0 8 6.5 14t15.5 6h211v63h-211q-36 0 -61 -24t-25 -59v-662q0 -34 25 -58.5t61 -24.5h860q35 0 60.5 24.5t25.5 58.5v238h-64v-239v0z" />
    <glyph glyph-name="gengduo" unicode="&#xe637;" 
d="M512 874q-100 0 -190.5 -39t-156 -104.5t-104.5 -156t-39 -190.5t39 -190.5t104.5 -156t156 -104.5t190.5 -39t190.5 39t156 104.5t104.5 156t39 190.5t-39 190.5t-104.5 156t-156 104.5t-190.5 39zM642 348l-189 -189q-15 -15 -36 -15t-36 15q-14 14 -14 35t14 36
l155 154l-154 154q-15 15 -15 35.5t15 35.5t35.5 15t35.5 -15l190 -189q15 -15 14 -36q0 -22 -15 -36z" />
  </font>
</defs>
</svg>
